<?xml version="1.0" standalone="no"?>
<!DOCTYPE svg PUBLIC "-//W3C//DTD SVG 20010904//EN"
 "http://www.w3.org/TR/2001/REC-SVG-20010904/DTD/svg10.dtd">
<svg version="1.0" xmlns="http://www.w3.org/2000/svg"
 width="4000.000000pt" height="1501.000000pt" viewBox="0 0 4000.000000 1501.000000"
 preserveAspectRatio="xMidYMid meet">

<g transform="translate(0.000000,1501.000000) scale(0.100000,-0.100000)"
fill="#000000" stroke="none">
<path d="M0 7510 l0 -7500 13458 1 c13119 0 13456 1 13417 19 -38 17 -146 55
-190 65 -11 3 -31 9 -45 15 -70 27 -86 33 -100 35 -8 2 -44 15 -79 29 -36 14
-73 26 -83 26 -10 0 -18 5 -18 10 0 6 -3 9 -7 8 -10 -2 -69 16 -114 36 -20 8
-39 12 -43 9 -3 -4 -6 0 -6 7 0 7 -3 11 -6 7 -4 -3 -23 1 -43 9 -20 9 -72 29
-116 44 -44 16 -126 46 -182 68 -57 22 -103 38 -103 35 0 -2 -12 2 -27 11 -16
8 -145 60 -288 116 -352 138 -543 216 -587 240 -20 11 -43 20 -50 20 -7 0 -35
11 -63 24 -136 65 -171 80 -177 78 -5 -1 -8 2 -8 8 0 5 -5 10 -12 10 -15 0
-164 69 -475 222 -133 65 -247 118 -252 118 -5 0 -11 3 -13 8 -1 4 -28 20 -58
35 -30 15 -62 32 -70 37 -54 32 -146 82 -150 81 -3 -1 -12 4 -21 11 -8 7 -22
14 -30 16 -8 2 -21 9 -29 16 -8 7 -40 27 -70 43 -98 53 -478 300 -509 331 -8
7 -26 21 -40 30 -14 9 -30 22 -34 29 -4 7 -13 13 -19 13 -10 0 -64 44 -214
176 -74 65 -79 73 -70 95 6 13 14 26 17 29 4 3 20 30 36 60 54 101 126 225
134 230 5 3 19 26 32 51 38 70 51 93 66 112 8 9 11 17 8 17 -4 0 1 9 11 20 9
12 16 24 16 28 -1 4 11 26 27 49 16 23 29 46 29 51 0 5 7 15 15 22 8 7 12 16
9 21 -3 5 -1 9 4 9 5 0 18 17 27 37 10 20 26 46 36 57 18 18 20 25 18 42 0 4
4 10 9 13 11 7 67 102 85 143 6 16 15 28 19 28 4 0 8 5 8 10 0 6 20 44 45 84
25 41 45 79 45 85 0 6 4 11 10 11 5 0 9 3 8 7 -3 9 32 65 47 75 5 4 7 8 2 8
-4 0 4 18 18 40 14 22 25 44 25 50 0 5 5 10 11 10 5 0 7 5 4 10 -3 6 -2 10 3
10 5 0 17 18 28 40 10 22 22 40 27 40 4 0 7 5 7 11 0 6 20 45 45 86 25 40 45
78 45 83 0 6 5 10 10 10 6 0 10 5 10 12 0 6 25 51 55 101 30 49 55 91 55 94 0
2 11 19 24 36 13 18 27 42 31 54 3 13 11 23 17 23 6 0 9 3 5 6 -3 3 14 36 37
72 23 37 43 72 44 77 1 6 9 18 17 27 8 10 13 18 10 18 -2 0 6 15 18 34 13 18
36 59 52 90 15 31 32 56 37 56 5 0 6 4 3 10 -3 5 -1 10 4 10 6 0 11 6 11 14 0
7 6 19 14 25 8 7 24 31 35 54 11 23 35 65 51 92 17 28 33 58 37 67 3 10 9 18
14 18 5 0 9 5 9 11 0 6 20 44 45 85 25 40 45 78 45 84 0 5 5 10 10 10 6 0 10
6 10 13 0 7 7 22 15 32 16 21 90 147 133 228 14 26 29 47 34 47 4 0 8 6 8 13
0 7 16 38 35 69 29 45 40 55 58 52 12 -2 38 -6 57 -9 19 -3 49 -10 65 -15 29
-9 146 -34 210 -45 33 -5 41 -7 130 -29 33 -8 63 -12 67 -10 5 3 8 0 8 -5 0
-6 3 -10 8 -9 13 4 106 -13 157 -28 28 -8 64 -17 80 -20 27 -4 131 -27 180
-39 11 -3 45 -10 75 -17 30 -6 57 -12 60 -13 23 -7 59 -16 80 -20 14 -2 52
-11 85 -19 33 -8 89 -21 125 -30 36 -8 106 -25 155 -36 50 -12 108 -26 130
-31 22 -4 128 -31 235 -58 107 -27 198 -47 202 -45 4 3 8 0 8 -5 0 -6 3 -10 8
-9 4 1 27 -1 52 -5 25 -5 46 -8 48 -7 1 0 16 -7 33 -16 17 -8 33 -13 36 -10 3
3 18 -1 33 -9 15 -8 29 -12 32 -10 2 2 26 -3 53 -11 28 -9 66 -18 85 -21 19
-3 47 -11 61 -19 15 -7 29 -11 31 -9 3 3 31 -3 64 -14 71 -22 114 -34 134 -36
9 -1 32 -7 51 -14 20 -6 46 -13 58 -16 12 -2 56 -14 99 -25 42 -12 85 -23 94
-25 9 -2 25 -8 36 -14 11 -6 22 -8 25 -5 3 3 19 -2 37 -11 18 -9 34 -14 37
-11 3 3 18 -1 33 -9 16 -8 42 -16 59 -17 17 -1 31 -5 31 -8 0 -4 6 -7 13 -7 6
0 44 -10 82 -21 39 -12 81 -23 95 -26 14 -2 45 -11 70 -20 25 -10 54 -18 65
-20 11 -1 30 -8 41 -14 12 -6 36 -13 53 -14 17 -1 31 -6 31 -10 0 -4 3 -7 8
-6 7 2 157 -42 217 -63 17 -6 40 -12 51 -15 12 -2 38 -11 58 -19 20 -8 38 -15
41 -15 11 1 124 -32 185 -55 93 -33 193 -66 208 -67 6 -1 12 -5 12 -10 0 -5 4
-7 9 -4 5 3 25 -1 45 -9 20 -8 36 -13 36 -10 0 2 25 -7 57 -20 31 -14 58 -23
61 -20 3 3 10 1 16 -4 6 -5 61 -26 121 -46 61 -21 116 -42 123 -48 6 -5 12 -7
12 -3 0 4 13 0 29 -9 17 -8 38 -17 48 -18 10 -2 27 -7 38 -11 11 -4 54 -20 95
-36 41 -15 84 -30 95 -34 l20 -6 -20 16 c-11 9 -38 25 -60 35 -22 11 -47 24
-55 28 -8 5 -69 35 -135 67 -66 32 -122 62 -125 66 -3 3 -18 10 -33 13 -15 4
-27 11 -27 16 0 5 -5 9 -10 9 -6 0 -30 9 -52 20 -23 11 -48 20 -55 20 -7 0
-13 5 -13 10 0 6 -6 10 -14 10 -7 0 -19 7 -26 15 -7 9 -15 13 -17 11 -3 -3
-26 8 -51 24 -26 15 -58 31 -72 35 -14 4 -29 11 -35 15 -5 4 -102 54 -215 110
-113 56 -225 113 -250 126 -25 14 -61 32 -80 41 -19 8 -44 20 -55 26 -11 6
-213 108 -450 227 -236 119 -440 222 -452 230 -15 10 -27 35 -39 85 -9 38 -21
75 -26 81 -5 7 -8 16 -7 20 3 9 -17 84 -31 119 -5 11 -18 58 -31 105 -12 47
-33 123 -47 170 -25 87 -87 324 -103 395 -5 22 -12 47 -16 55 -4 8 -8 22 -10
30 -1 8 -16 62 -32 120 -16 58 -36 134 -45 170 -9 36 -23 85 -31 110 -8 25
-19 68 -25 95 -6 28 -15 59 -20 70 -5 11 -19 56 -29 100 -20 78 -53 202 -92
335 -10 36 -32 115 -48 175 -16 61 -39 144 -51 185 -12 41 -35 122 -50 180
-16 58 -38 137 -49 175 -11 39 -36 131 -56 205 -20 74 -43 158 -51 185 -7 28
-25 95 -39 150 -14 55 -30 109 -35 120 -14 31 -30 97 -30 125 0 27 48 62 185
135 39 21 72 41 75 44 7 10 58 39 165 96 50 27 112 63 140 82 27 18 53 33 56
33 4 0 61 31 128 70 66 38 124 70 128 70 5 0 35 18 68 40 33 22 66 40 73 40 6
0 12 5 12 10 0 6 5 10 10 10 6 0 48 21 93 47 83 47 172 96 262 142 28 14 52
29 55 32 3 4 46 28 95 54 50 26 95 51 100 55 6 4 46 27 90 50 154 82 230 123
265 145 19 12 51 27 70 35 19 7 40 17 45 21 18 13 137 78 220 120 44 22 121
63 170 90 50 27 106 56 126 65 20 8 56 26 80 40 24 14 98 52 164 84 66 33 138
70 161 82 22 13 70 37 107 53 37 17 67 33 67 38 0 4 7 7 15 7 14 0 53 18 65
30 3 3 30 17 60 32 30 14 129 62 220 107 91 45 171 81 178 81 6 0 12 5 12 10
0 6 6 10 13 10 6 0 26 7 42 16 17 9 46 22 66 29 20 7 54 24 75 37 22 13 55 30
74 38 33 12 134 59 295 135 68 32 149 68 190 85 32 13 101 44 225 100 63 28
120 53 125 54 17 5 47 17 102 42 28 13 56 24 62 24 6 0 27 9 48 19 67 34 267
118 298 126 6 1 24 8 40 14 17 7 66 24 110 38 44 14 94 32 112 39 17 8 36 14
42 14 6 0 11 4 11 8 0 5 6 9 13 10 11 0 81 24 117 39 8 3 17 7 20 8 20 5 89
28 105 35 19 8 194 65 455 149 131 41 270 80 405 112 44 11 87 21 95 24 59 15
354 73 410 79 14 2 57 9 95 15 39 7 105 14 148 15 72 3 78 2 82 -18 3 -12 11
-50 20 -86 l15 -65 -37 -33 c-43 -38 -107 -75 -160 -92 -43 -14 -116 -49 -123
-60 -3 -4 -39 -24 -80 -46 -92 -47 -200 -114 -200 -123 0 -4 -13 -15 -30 -24
-33 -20 -44 -30 -199 -181 -61 -59 -111 -111 -111 -115 0 -3 -11 -18 -25 -33
-14 -15 -25 -31 -25 -37 0 -5 -6 -22 -14 -38 -34 -68 -44 -101 -55 -187 -6
-48 -4 -69 11 -109 27 -70 73 -132 116 -153 21 -11 54 -32 75 -47 20 -16 37
-24 37 -18 0 13 37 15 45 2 3 -6 17 -4 33 5 15 7 36 14 46 14 26 0 159 40 170
51 6 5 20 9 32 9 12 0 27 7 34 15 7 8 17 15 22 15 6 0 24 6 41 14 18 8 50 20
72 26 22 7 45 16 50 20 6 4 35 15 65 25 30 9 69 23 87 31 17 8 33 14 36 14 9
0 182 82 187 89 11 14 87 61 98 61 12 0 22 -30 57 -180 13 -52 41 -167 63
-255 22 -88 50 -203 61 -255 12 -52 35 -153 51 -225 16 -71 38 -168 50 -215
12 -47 37 -150 55 -230 18 -80 43 -183 55 -230 12 -47 23 -92 25 -100 1 -8 8
-35 15 -59 6 -23 20 -82 31 -129 27 -115 54 -223 73 -297 9 -33 34 -134 56
-225 23 -91 54 -219 70 -285 17 -66 32 -129 35 -140 5 -25 38 -151 60 -230 9
-33 22 -87 30 -120 8 -33 23 -96 35 -140 12 -44 23 -87 24 -95 2 -8 6 -22 9
-30 3 -8 16 -53 27 -100 12 -47 32 -125 45 -175 13 -49 35 -137 49 -195 15
-58 30 -114 35 -125 5 -11 16 -49 25 -85 33 -133 57 -225 63 -240 3 -8 7 -19
8 -25 0 -5 4 -17 7 -25 3 -8 13 -44 22 -80 8 -36 29 -114 46 -175 17 -60 37
-135 45 -165 9 -30 20 -64 25 -75 5 -11 18 -56 29 -100 33 -135 51 -199 62
-218 5 -10 7 -22 4 -27 -4 -6 -2 -10 2 -10 5 0 16 -37 27 -82 10 -45 22 -88
27 -97 5 -9 15 -41 23 -71 8 -30 27 -95 41 -145 32 -110 31 -107 38 -125 3 -8
20 -62 37 -120 94 -312 126 -415 185 -595 28 -88 69 -214 89 -280 21 -66 42
-129 47 -140 4 -11 49 -141 98 -290 49 -148 95 -283 102 -300 7 -16 13 -34 15
-40 1 -5 21 -64 44 -130 23 -66 50 -147 61 -180 11 -33 26 -74 34 -92 8 -17
15 -35 15 -40 0 -4 39 -115 86 -246 48 -131 85 -240 83 -242 -2 -2 -53 -33
-114 -69 -60 -36 -143 -86 -183 -111 -41 -26 -81 -49 -90 -52 -10 -4 -19 -9
-22 -12 -3 -4 -16 -12 -30 -19 -14 -7 -56 -33 -95 -57 -38 -24 -85 -51 -102
-59 -18 -8 -53 -29 -77 -45 -25 -17 -47 -31 -49 -31 -3 0 -60 -32 -128 -72
-68 -39 -155 -88 -194 -108 -38 -21 -105 -58 -148 -84 -43 -25 -82 -46 -85
-46 -4 0 -52 -26 -107 -58 -55 -31 -131 -73 -170 -91 -38 -19 -72 -37 -75 -41
-3 -4 -36 -22 -75 -42 -38 -19 -110 -57 -160 -83 -127 -68 -163 -85 -174 -85
-5 0 -11 -3 -13 -8 -1 -4 -55 -32 -118 -63 -114 -56 -433 -211 -520 -253 -25
-11 -47 -24 -50 -27 -3 -3 -21 -11 -40 -19 -33 -12 -65 -27 -225 -99 -38 -18
-86 -39 -105 -48 -19 -8 -48 -21 -65 -28 -126 -57 -333 -145 -339 -145 -4 0
-28 -9 -53 -21 -24 -11 -79 -34 -121 -50 -43 -17 -90 -36 -107 -44 -16 -7 -77
-30 -135 -50 -58 -21 -116 -43 -130 -50 -14 -7 -54 -22 -90 -33 -127 -41 -284
-95 -325 -112 -11 -5 -67 -23 -125 -40 -58 -17 -123 -37 -145 -45 -178 -57
-321 -96 -465 -126 -52 -11 -104 -24 -115 -29 -19 -8 -210 -51 -405 -91 -52
-10 -113 -23 -135 -28 -24 -5 1840 -9 4533 -10 l4572 -1 0 7500 0 7500 -20000
0 -20000 0 0 -7500z m38030 7436 c0 -3 -4 -8 -10 -11 -5 -3 -10 -1 -10 4 0 6
5 11 10 11 6 0 10 -2 10 -4z m-30 -64 c0 -10 -22 -32 -32 -32 -5 0 -3 9 4 20
13 20 28 27 28 12z m-3272 -1055 c19 -15 14 -27 -12 -27 -17 0 -25 7 -28 24
-4 19 -1 23 11 19 9 -4 22 -10 29 -16z m-98 -66 c0 -6 -4 -13 -10 -16 -5 -3
-10 1 -10 9 0 9 5 16 10 16 6 0 10 -4 10 -9z m60 -21 c0 -21 -15 -27 -25 -10
-7 12 2 30 16 30 5 0 9 -9 9 -20z m158 -22 c-5 -32 -28 -35 -28 -4 0 17 5 26
16 26 10 0 14 -7 12 -22z m32 -33 c0 -8 -4 -15 -10 -15 -5 0 -10 7 -10 15 0 8
5 15 10 15 6 0 10 -7 10 -15z m91 -16 c37 -29 50 -61 30 -73 -14 -9 -40 4 -46
24 -4 11 -12 16 -24 13 -23 -6 -42 18 -34 45 7 30 28 28 74 -9z m1303 -104 c3
-9 0 -15 -9 -15 -8 0 -15 7 -15 15 0 8 4 15 9 15 5 0 11 -7 15 -15z m-314 -99
c0 -8 -4 -18 -10 -21 -5 -3 -10 3 -10 14 0 12 5 21 10 21 6 0 10 -6 10 -14z
m-10901 -7338 c60 -30 69 -41 52 -67 -6 -9 -15 -11 -27 -6 -11 5 -22 7 -26 7
-5 -1 -8 3 -8 8 0 6 -7 10 -15 10 -21 0 -19 -18 4 -25 33 -10 44 -31 26 -48
-13 -14 -20 -14 -48 -2 -30 13 -33 12 -53 -12 -18 -22 -23 -24 -42 -14 l-23
12 30 53 c42 78 62 106 74 106 5 0 31 -10 56 -22z m155 -79 c17 -8 23 -18 21
-33 -2 -11 -7 -43 -11 -71 -4 -27 -8 -58 -10 -67 -1 -10 -2 -23 -3 -28 0 -6
-14 -4 -31 5 -17 9 -29 19 -26 23 6 11 -5 25 -29 38 -16 9 -23 8 -33 -2 -10
-11 -18 -11 -32 -4 -11 6 -20 15 -20 19 0 8 41 45 120 110 30 24 24 23 54 10z
m202 -108 c11 -9 19 -22 16 -29 -2 -6 1 -12 7 -12 6 0 11 4 11 9 0 8 28 8 38
1 1 -2 5 -3 10 -4 23 -6 92 -48 92 -57 0 -6 6 -9 14 -6 8 3 22 0 32 -7 16 -12
15 -16 -11 -70 -44 -90 5 -103 55 -14 22 39 56 51 66 24 8 -21 -42 -102 -78
-127 -26 -19 -34 -20 -67 -10 -45 13 -64 48 -55 97 3 19 10 34 14 34 9 0 32
51 25 58 -3 3 -5 0 -5 -5 0 -12 -18 -12 -37 0 -9 5 -23 -8 -43 -39 -16 -26
-31 -51 -33 -57 -4 -14 -56 0 -53 15 1 7 15 35 31 62 l28 48 -24 19 c-13 10
-31 18 -40 16 -9 -1 -27 7 -39 18 -23 20 -43 15 -64 -17 -13 -21 9 -48 39 -48
25 0 40 -33 21 -49 -18 -14 -77 -5 -98 17 -27 26 -32 90 -10 120 10 13 36 29
57 36 42 15 57 11 101 -23z m411 -202 c59 -33 74 -49 63 -69 -5 -10 -7 -20 -4
-22 3 -3 -9 -17 -25 -30 -31 -27 -45 -63 -24 -63 12 0 36 18 112 82 30 26 35
27 62 13 14 -8 18 -18 14 -39 -2 -15 -7 -45 -10 -67 -10 -82 -16 -95 -38 -92
-12 2 -23 12 -25 23 -7 36 -24 47 -61 41 -53 -8 -121 34 -121 74 0 34 -14 39
-30 10 -13 -23 -20 -25 -44 -7 -16 12 -14 18 26 90 24 42 48 77 55 77 7 0 29
-9 50 -21z"/>
<path d="M25161 5964 c0 -11 3 -14 6 -6 3 7 2 16 -1 19 -3 4 -6 -2 -5 -13z"/>
<path d="M25790 5680 c0 -19 5 -25 24 -27 13 -2 17 1 12 13 -3 8 -6 18 -6 20
0 2 -7 4 -15 4 -8 0 -15 -4 -15 -10z"/>
<path d="M32230 10658 c0 -32 7 -47 34 -74 31 -31 33 -38 32 -91 -1 -57 0 -58
35 -76 44 -21 74 -14 64 17 -4 11 -13 50 -21 86 -14 64 -52 160 -63 160 -3 0
-23 4 -43 9 l-38 9 0 -40z"/>
<path d="M32088 10655 c-3 -3 4 -50 15 -106 17 -83 25 -105 52 -134 23 -26 40
-35 63 -35 27 0 32 4 32 24 0 26 -13 40 -49 51 -14 4 -33 16 -44 26 -22 20
-21 26 24 97 l21 33 -28 24 c-26 23 -73 33 -86 20z"/>
<path d="M31945 10610 c-3 -5 1 -37 10 -72 9 -35 20 -81 26 -103 5 -22 15 -47
22 -56 19 -25 76 -51 98 -44 17 6 19 12 13 43 -4 20 -12 55 -19 77 -7 22 -16
55 -20 74 -11 50 -51 91 -91 91 -18 0 -35 -4 -39 -10z"/>
<path d="M28936 9011 c-23 -24 -27 -35 -22 -57 9 -36 33 -53 73 -54 59 0 91
61 56 108 -29 39 -71 40 -107 3z m78 -17 c15 -38 1 -64 -34 -64 -18 0 -31 39
-20 60 13 24 45 26 54 4z"/>
<path d="M28826 8992 c-8 -13 28 -115 42 -120 16 -5 15 34 -2 83 -14 40 -29
54 -40 37z"/>
<path d="M28675 8953 c-11 -10 -11 -22 0 -64 17 -64 23 -70 42 -42 12 18 19
21 35 12 27 -14 54 -4 39 15 -7 8 -9 25 -6 39 9 34 -17 57 -61 55 -20 -1 -42
-7 -49 -15z m68 -20 c8 -7 -11 -33 -24 -33 -5 0 -9 9 -9 20 0 19 20 27 33 13z"/>
<path d="M28530 8915 c-14 -17 -27 -135 -14 -135 5 0 18 9 28 21 14 16 25 20
50 15 18 -3 35 -3 39 1 8 7 -13 42 -51 84 -29 33 -35 35 -52 14z"/>
<path d="M28363 8879 c-39 -11 -41 -21 -8 -39 16 -8 27 -25 31 -47 4 -24 12
-33 25 -33 19 0 20 16 3 69 -2 8 3 24 11 37 15 23 14 24 -7 23 -13 0 -38 -5
-55 -10z"/>
<path d="M28202 8828 c-5 -7 -13 -41 -17 -75 -8 -68 3 -81 30 -39 14 21 20 23
50 16 45 -10 52 2 23 42 -46 66 -67 79 -86 56z"/>
<path d="M28080 8781 c0 -27 -13 -33 -36 -16 -25 19 -64 19 -64 0 0 -8 5 -35
12 -60 9 -32 17 -45 30 -45 13 0 18 8 18 25 0 29 8 31 36 10 26 -20 54 -19 54
3 0 27 -27 96 -39 100 -6 2 -11 -5 -11 -17z"/>
<path d="M27905 8751 c-8 -15 5 -84 21 -106 10 -13 17 -16 25 -8 7 7 6 27 -6
67 -16 54 -27 67 -40 47z"/>
<path d="M27783 8729 c-40 -12 -52 -29 -24 -36 12 -3 25 -19 32 -42 15 -46 26
-58 40 -44 8 8 8 21 -1 48 -9 27 -9 40 -1 48 15 15 14 37 -1 36 -7 0 -27 -5
-45 -10z"/>
<path d="M27618 8679 c-26 -15 -22 -46 8 -65 22 -15 23 -19 10 -26 -9 -5 -16
-13 -16 -18 0 -13 56 -13 81 0 34 19 18 70 -23 70 -22 0 -24 18 -3 26 8 4 15
10 15 15 0 12 -51 11 -72 -2z"/>
<path d="M27468 8644 c-29 -15 -35 -28 -18 -39 6 -4 8 -10 5 -15 -3 -4 2 -24
10 -43 14 -34 15 -35 52 -26 21 5 41 9 46 9 4 0 7 7 7 15 0 10 -11 15 -32 16
-33 0 -33 0 -10 16 30 21 28 33 -5 34 -17 0 -22 3 -13 6 21 9 40 30 33 37 -11
10 -47 6 -75 -10z"/>
<path d="M34217 8614 c-3 -3 -23 -10 -44 -15 -155 -37 -224 -54 -418 -104
-121 -32 -254 -65 -295 -75 -41 -10 -82 -21 -91 -24 -8 -4 -60 -17 -115 -30
-152 -37 -490 -122 -619 -156 -44 -12 -143 -36 -220 -55 -77 -18 -176 -43
-220 -55 -44 -12 -127 -33 -185 -46 -58 -14 -106 -27 -108 -29 -5 -5 36 -168
56 -227 10 -29 23 -48 32 -48 14 1 63 12 250 60 41 11 131 33 200 50 69 16
132 32 140 35 16 5 95 24 300 75 69 17 168 41 220 55 52 13 151 37 220 55 69
17 159 40 200 50 41 11 138 35 215 54 77 19 176 44 220 56 44 12 127 32 185
45 58 14 129 32 158 41 l53 16 -7 37 c-4 20 -10 43 -14 51 -4 8 -13 42 -20 75
-17 82 -35 115 -64 115 -12 0 -25 -3 -29 -6z m-1087 -429 c0 -8 -4 -15 -9 -15
-13 0 -22 16 -14 24 11 11 23 6 23 -9z m-140 -19 c0 -3 -4 -8 -10 -11 -5 -3
-10 -1 -10 4 0 6 5 11 10 11 6 0 10 -2 10 -4z m115 -24 c-7 -8 -35 7 -35 18 0
6 7 6 20 -2 10 -7 17 -14 15 -16z m-169 -20 c-9 -8 -26 10 -26 26 1 15 2 15
15 -2 8 -11 13 -21 11 -24z"/>
<path d="M27315 8603 c-33 -8 -37 -18 -24 -69 15 -64 20 -68 63 -54 45 15 69
48 60 84 -10 40 -42 53 -99 39z m53 -35 c13 -17 -3 -58 -22 -58 -17 0 -32 42
-21 59 8 15 30 14 43 -1z"/>
<path d="M31760 7981 c-8 -5 -55 -18 -105 -29 -147 -33 -269 -64 -290 -73 -11
-4 -54 -16 -95 -25 -41 -9 -136 -32 -210 -51 -74 -19 -184 -47 -245 -61 -60
-15 -115 -30 -121 -34 -12 -8 43 -240 61 -257 6 -6 103 14 265 55 140 36 302
76 360 90 118 29 302 74 400 98 107 27 130 36 130 54 0 9 -11 55 -24 102 -13
47 -27 97 -30 113 -6 24 -11 27 -44 27 -20 0 -44 -5 -52 -9z m-156 -193 c4
-17 2 -28 -4 -28 -5 0 -10 9 -10 19 0 11 -5 21 -11 23 -5 2 -7 11 -3 22 8 21
17 9 28 -36z m-104 -7 c0 -5 3 -16 6 -25 3 -9 1 -16 -5 -16 -6 0 -11 7 -11 15
0 8 -4 15 -10 15 -5 0 -10 5 -10 10 0 6 7 10 15 10 8 0 15 -4 15 -9z m-79 -14
c-1 -12 -15 -9 -19 4 -3 6 1 10 8 8 6 -3 11 -8 11 -12z m-133 -35 c2 -7 -3
-12 -12 -12 -9 0 -16 7 -16 16 0 17 22 14 28 -4z m58 -7 c6 -24 0 -44 -10 -34
-11 11 -17 59 -7 59 6 0 13 -11 17 -25z m129 15 c-3 -5 -14 -10 -23 -10 -15 0
-15 2 -2 10 20 13 33 13 25 0z m-274 -39 c-6 -10 -9 -20 -8 -22 1 -2 -3 2 -10
10 -14 16 -8 31 13 31 11 0 12 -4 5 -19z m-41 -42 c0 -5 -8 -9 -17 -9 -15 0
-16 2 -3 10 13 8 11 11 -7 16 -24 7 -28 15 -16 28 8 8 43 -29 43 -45z"/>
<path d="M30540 7673 c-30 -8 -107 -27 -170 -42 -63 -15 -122 -30 -130 -34 -8
-3 -46 -13 -85 -22 -170 -40 -317 -76 -410 -100 -55 -15 -154 -39 -220 -55
-66 -16 -165 -40 -220 -55 -55 -14 -154 -39 -220 -55 -66 -16 -156 -38 -200
-50 -44 -11 -89 -22 -100 -25 -42 -9 -311 -76 -480 -119 -115 -30 -391 -98
-475 -117 -119 -28 -120 -28 -120 -50 0 -26 31 -151 40 -164 4 -5 11 -25 15
-43 4 -18 12 -35 19 -38 13 -5 25 -2 171 36 71 19 306 76 345 83 8 2 22 6 30
10 8 3 44 12 80 21 36 8 121 29 190 46 69 17 170 41 225 55 55 13 156 38 225
55 69 17 154 37 190 45 36 8 88 22 115 30 28 8 97 26 155 39 58 13 143 34 190
46 47 12 92 24 100 26 155 38 562 137 695 169 187 45 208 53 199 74 -3 9 -17
59 -30 111 -27 105 -42 140 -58 139 -6 0 -36 -7 -66 -16z m-1180 -428 c0 -8
-7 -15 -15 -15 -16 0 -20 12 -8 23 11 12 23 8 23 -8z m-90 -24 c0 -11 -4 -23
-10 -26 -5 -3 -10 -1 -10 5 0 8 -9 10 -25 6 -29 -7 -34 8 -7 23 28 17 52 13
52 -8z m115 -11 c-3 -5 -16 -10 -28 -10 -18 0 -19 2 -7 10 20 13 43 13 35 0z
m-225 -10 c0 -5 -4 -10 -10 -10 -5 0 -10 -4 -10 -10 0 -5 7 -10 15 -10 8 0 15
-5 15 -11 0 -6 -12 -9 -27 -7 -34 4 -46 43 -16 51 30 8 33 7 33 -3z m-83 -19
c-2 -10 0 -27 5 -37 6 -11 1 -9 -11 6 -25 30 -27 50 -5 50 11 0 15 -6 11 -19z"/>
<path d="M29256 7586 c-21 -45 -20 -56 7 -56 12 0 32 -3 45 -6 26 -7 29 12 11
65 -15 42 -42 41 -63 -3z"/>
<path d="M29137 7583 c-12 -11 -8 -23 6 -18 6 3 18 1 26 -4 12 -7 10 -14 -8
-37 -26 -33 -15 -49 28 -39 29 6 44 25 20 25 -7 0 -9 11 -6 29 3 15 1 33 -6
40 -12 12 -50 15 -60 4z"/>
<path d="M29022 7550 c-12 -12 -22 -29 -22 -40 0 -23 37 -60 59 -60 30 0 45
18 45 55 0 25 -6 42 -19 51 -25 19 -37 18 -63 -6z m53 -30 c7 -21 0 -40 -15
-40 -13 0 -32 39 -25 50 10 17 33 11 40 -10z"/>
<path d="M28918 7533 c-24 -6 -23 -23 1 -23 30 0 35 -19 12 -44 -12 -12 -21
-28 -21 -34 0 -17 49 -15 66 3 10 10 11 15 3 15 -8 0 -9 10 -5 31 9 48 -9 64
-56 52z"/>
<path d="M28835 7464 c-3 -26 -9 -53 -12 -60 -3 -8 -1 -14 5 -14 5 0 13 17 17
38 3 20 9 47 12 60 3 12 1 22 -5 22 -5 0 -13 -21 -17 -46z"/>
<path d="M28729 7453 c-14 -3 -15 -9 -6 -36 7 -18 12 -33 13 -35 1 -2 13 0 28
4 20 5 24 10 17 21 -5 9 -6 24 -4 34 5 19 -9 23 -48 12z"/>
<path d="M28550 7410 c0 -16 2 -30 4 -30 2 0 6 14 8 30 3 17 1 30 -4 30 -4 0
-8 -13 -8 -30z"/>
<path d="M28637 7432 c-22 -3 -27 -7 -22 -20 4 -9 9 -25 12 -34 3 -10 14 -16
26 -14 24 2 29 9 22 28 -2 7 -5 20 -7 28 -2 10 -12 14 -31 12z"/>
<path d="M28441 7379 c-19 -7 -22 -12 -13 -21 7 -7 12 -22 12 -33 0 -18 5 -21
30 -17 25 4 29 8 24 24 -3 11 -7 28 -8 36 -3 20 -15 23 -45 11z"/>
<path d="M28349 7356 c-23 -10 -25 -14 -17 -38 7 -21 16 -28 34 -28 23 0 24 2
18 38 -4 20 -7 37 -8 38 0 1 -13 -4 -27 -10z"/>
<path d="M28536 7331 c-4 -7 -5 -15 -2 -18 9 -9 19 4 14 18 -4 11 -6 11 -12 0z"/>
<path d="M28090 7295 c-6 -8 -9 -19 -5 -25 4 -6 2 -17 -4 -24 -8 -10 -7 -17 4
-26 11 -9 21 -9 45 1 33 15 38 34 14 67 -18 25 -36 28 -54 7z"/>
<path d="M27954 7286 c-9 -23 16 -96 33 -96 7 0 13 11 13 25 0 16 6 25 15 25
8 0 15 -6 15 -14 0 -21 21 -31 30 -15 14 22 -20 69 -50 69 -14 0 -31 5 -38 12
-9 9 -13 7 -18 -6z"/>
<path d="M27881 7239 c-25 -24 -26 -33 -5 -53 17 -18 64 -22 64 -6 0 6 -9 10
-20 10 -24 0 -27 28 -4 45 15 10 15 12 1 18 -8 3 -24 -3 -36 -14z"/>
<path d="M27674 7220 c-12 -4 -23 -14 -26 -22 -6 -15 18 -78 30 -78 12 0 34
54 22 58 -16 6 -12 32 5 32 8 0 15 5 15 10 0 12 -17 12 -46 0z"/>
<path d="M27783 7222 c-6 -4 -14 -18 -18 -32 -7 -29 24 -55 55 -45 16 5 38 60
28 70 -9 9 -54 14 -65 7z"/>
<path d="M24517 4513 c-10 -9 -9 -23 1 -23 5 0 9 7 9 15 0 17 -1 18 -10 8z"/>
<path d="M24235 4430 c3 -5 12 -10 18 -10 7 0 34 -12 61 -26 26 -14 50 -23 52
-21 5 5 -113 67 -127 67 -6 0 -7 -4 -4 -10z"/>
<path d="M24616 4423 c-6 -14 -5 -15 5 -6 7 7 10 15 7 18 -3 3 -9 -2 -12 -12z"/>
<path d="M24380 4362 c1 -10 170 -92 170 -82 0 4 -21 18 -47 31 -27 12 -50 25
-53 28 -8 10 -70 30 -70 23z"/>
<path d="M24909 4323 c-12 -16 -12 -17 2 -6 9 7 20 9 24 5 5 -4 5 -1 1 6 -9
16 -11 15 -27 -5z"/>
<path d="M24890 4296 c0 -2 7 -7 16 -10 8 -3 12 -2 9 4 -6 10 -25 14 -25 6z"/>
<path d="M24560 4270 c0 -5 5 -10 11 -10 5 0 7 5 4 10 -3 6 -8 10 -11 10 -2 0
-4 -4 -4 -10z"/>
<path d="M24590 4261 c0 -7 88 -60 115 -69 29 -11 160 -78 163 -84 2 -5 10 -8
17 -8 7 0 44 -16 82 -37 96 -51 222 -113 229 -112 4 0 10 -3 13 -8 3 -4 43
-27 89 -50 64 -32 82 -38 82 -25 0 8 -3 13 -6 9 -3 -3 -31 10 -62 29 -32 19
-65 34 -74 34 -10 0 -18 5 -18 10 0 6 -7 10 -15 10 -8 0 -36 13 -62 29 -27 16
-59 32 -73 36 -14 4 -27 10 -30 14 -10 13 -450 230 -450 222z"/>
<path d="M25230 4160 c0 -5 5 -10 11 -10 5 0 7 5 4 10 -3 6 -8 10 -11 10 -2 0
-4 -4 -4 -10z"/>
<path d="M25245 4110 c-3 -5 -2 -10 4 -10 5 0 13 5 16 10 3 6 2 10 -4 10 -5 0
-13 -4 -16 -10z"/>
<path d="M29830 4051 c0 -5 7 -11 15 -15 8 -3 15 -1 15 3 0 5 -7 11 -15 15 -8
3 -15 1 -15 -3z"/>
<path d="M25405 3844 c11 -8 41 -25 68 -37 26 -12 47 -25 47 -29 0 -5 6 -8 14
-8 14 0 221 -102 243 -120 7 -6 15 -10 19 -10 4 0 47 -21 96 -46 50 -25 101
-49 114 -54 39 -15 27 3 -14 22 -20 9 -57 28 -82 41 -25 13 -117 60 -205 103
-88 43 -191 96 -229 117 -70 37 -108 49 -71 21z"/>
<path d="M26040 3530 c0 -8 52 -41 70 -45 10 -3 65 -30 70 -35 3 -3 11 -6 18
-8 7 -1 30 -13 51 -27 21 -13 42 -21 45 -18 3 4 6 1 6 -5 0 -7 6 -12 13 -12 6
0 41 -16 77 -35 36 -19 126 -64 200 -101 74 -36 141 -71 148 -77 17 -13 55
-21 48 -9 -6 10 -115 66 -134 68 -7 2 -30 13 -50 26 -21 13 -140 75 -267 137
-126 63 -237 119 -245 126 -22 17 -50 26 -50 15z"/>
<path d="M33196 3443 c-3 -4 -14 -8 -24 -9 -9 -2 -64 -14 -122 -28 -58 -14
-161 -37 -230 -52 -69 -14 -134 -30 -145 -34 -11 -5 -36 -12 -55 -15 -19 -4
-98 -22 -175 -40 -77 -18 -171 -39 -210 -46 -60 -10 -135 -34 -135 -42 0 -3
66 -187 79 -219 7 -20 18 -28 35 -28 32 0 176 29 201 40 11 5 54 16 95 25 41
8 84 17 95 20 11 2 81 18 155 35 74 16 144 32 155 34 11 2 58 13 105 24 47 11
134 32 193 45 60 14 112 28 115 32 6 6 -33 130 -48 150 -4 6 -10 24 -14 40
-14 57 -47 90 -70 68z m-301 -171 c15 -10 37 -90 30 -103 -4 -5 -12 -8 -18 -6
-7 2 -25 -2 -40 -10 -15 -8 -55 -15 -88 -16 -43 -1 -64 -6 -76 -19 -21 -23
-34 -23 -66 2 -18 15 -24 26 -19 42 7 29 20 38 55 38 20 0 30 6 34 20 10 36
57 14 66 -30 4 -24 4 -24 6 2 1 32 32 52 68 45 18 -3 23 -1 19 10 -10 26 7 41
29 25z m-317 -94 c-1 -18 2 -45 6 -60 7 -24 5 -28 -12 -28 -13 0 -22 9 -27 28
-3 15 -18 37 -33 49 l-27 22 25 10 c14 5 35 10 47 10 20 1 23 -4 21 -31z"/>
<path d="M23510 3185 c12 -14 50 -27 50 -16 0 4 -14 12 -31 18 -25 10 -29 9
-19 -2z"/>
<path d="M23570 3155 c0 -7 84 -49 93 -47 4 1 7 -2 7 -8 0 -5 9 -10 19 -10 11
0 27 -7 35 -16 9 -8 16 -12 16 -8 0 3 6 2 13 -4 14 -12 390 -202 399 -202 4 0
40 -20 82 -45 42 -24 76 -43 76 -40 0 2 33 -13 73 -34 41 -21 82 -43 93 -49
95 -50 167 -82 172 -78 8 8 19 2 -208 115 -113 57 -209 107 -214 112 -6 5 -16
9 -23 9 -6 0 -50 22 -97 49 -47 27 -87 47 -89 45 -2 -3 -31 10 -63 29 -70 39
-369 187 -378 187 -3 0 -6 -2 -6 -5z"/>
<path d="M26800 3141 c0 -8 24 -23 41 -25 13 -2 85 -42 91 -51 4 -5 8 -6 8 -1
0 5 7 3 15 -4 10 -8 15 -9 15 -1 0 6 -27 25 -61 41 -79 40 -109 52 -109 41z"/>
<path d="M27220 3120 c-9 -16 -8 -18 5 -14 8 4 15 12 15 20 0 20 -7 17 -20 -6z"/>
<path d="M31640 3136 c0 -2 19 -16 41 -31 29 -19 44 -24 52 -16 7 7 5 12 -9
16 -10 4 -31 13 -46 21 -26 14 -38 17 -38 10z"/>
<path d="M27338 3110 c24 -10 26 -35 4 -35 -7 0 -12 -3 -12 -7 0 -5 0 -12 0
-18 0 -5 10 0 22 12 24 24 15 51 -18 55 -14 2 -13 0 4 -7z"/>
<path d="M27300 3078 c-12 -22 -12 -22 6 -6 10 10 15 20 12 24 -4 3 -12 -5
-18 -18z"/>
<path d="M29574 3033 c-16 -26 -29 -50 -29 -53 -1 -3 -8 -19 -17 -36 -10 -18
-13 -36 -8 -44 4 -7 6 -19 3 -27 -3 -9 3 -13 21 -13 14 0 26 5 26 11 0 6 11
25 25 43 14 18 25 38 25 44 0 7 4 12 8 12 4 0 9 17 10 38 2 27 -3 43 -16 56
-19 16 -21 15 -48 -31z"/>
<path d="M27403 3055 c-3 -9 -3 -18 -1 -21 3 -3 8 4 11 16 6 23 -1 27 -10 5z"/>
<path d="M26980 3050 c0 -6 6 -10 14 -10 8 0 16 -3 18 -7 3 -8 98 -56 216
-109 34 -15 62 -32 62 -36 0 -4 7 -8 15 -8 9 0 32 -11 53 -24 20 -12 48 -26
62 -31 14 -4 46 -20 72 -36 47 -28 112 -59 125 -58 3 1 9 -3 12 -8 7 -10 158
-85 167 -83 4 1 10 -2 13 -7 3 -4 56 -33 116 -63 61 -30 112 -58 113 -62 2 -5
9 -8 16 -8 12 0 303 -145 322 -161 7 -5 16 -9 20 -7 5 1 19 -3 32 -10 12 -7
22 -9 22 -3 0 5 -80 48 -177 95 -98 48 -191 94 -208 102 -16 9 -61 32 -100 51
-38 19 -86 43 -105 54 -19 11 -132 68 -250 126 -118 59 -235 119 -260 133 -25
15 -49 28 -55 29 -30 9 -59 23 -97 47 -24 15 -45 27 -48 27 -3 0 -32 13 -65
29 -86 42 -105 49 -105 38z"/>
<path d="M27482 3018 c-7 -7 -12 -19 -11 -27 0 -14 1 -14 6 -1 4 8 13 20 22
27 9 7 11 13 6 13 -6 0 -16 -5 -23 -12z"/>
<path d="M29675 3008 c-4 -13 -17 -33 -29 -46 -11 -13 -20 -26 -18 -28 1 -2
-4 -17 -12 -32 -12 -24 -12 -32 0 -62 13 -31 16 -32 31 -18 10 11 13 23 8 35
-19 41 -14 63 15 78 17 9 33 15 37 14 18 -2 27 30 15 55 -14 32 -38 34 -47 4z"/>
<path d="M29760 2968 c-8 -13 -15 -40 -15 -62 -1 -36 -17 -58 -48 -69 -11 -3
-3 -43 13 -67 9 -13 13 -11 30 10 10 14 33 53 51 87 28 56 30 63 18 89 -18 36
-31 39 -49 12z"/>
<path d="M27650 2953 c8 -3 19 -11 23 -17 6 -7 7 -6 4 4 -2 8 -12 16 -23 17
-13 2 -15 1 -4 -4z"/>
<path d="M27664 2898 l-19 -23 23 19 c21 18 27 26 19 26 -2 0 -12 -10 -23 -22z"/>
<path d="M27780 2855 c-11 -20 -11 -28 -1 -38 10 -9 11 -8 5 6 -3 9 -1 24 6
32 7 9 11 18 8 20 -3 3 -11 -6 -18 -20z"/>
<path d="M27832 2840 c-18 -29 -15 -38 4 -12 9 13 14 25 12 27 -2 2 -9 -5 -16
-15z"/>
<path d="M24660 2610 c0 -6 21 -20 48 -33 26 -12 49 -25 52 -28 3 -4 16 -10
29 -14 14 -4 46 -21 72 -36 25 -16 62 -34 80 -41 19 -6 36 -14 39 -17 8 -9
259 -132 266 -131 4 1 10 -2 13 -7 3 -5 33 -22 66 -38 33 -17 63 -34 66 -38 3
-5 9 -8 13 -8 7 2 499 -241 506 -249 3 -3 21 -12 40 -20 19 -8 37 -16 40 -19
9 -11 576 -291 588 -291 7 0 12 -4 12 -10 0 -5 7 -10 15 -10 8 0 15 -4 15 -8
0 -5 6 -9 13 -9 6 0 30 -11 52 -25 22 -14 43 -26 47 -27 12 -3 99 -45 138 -66
19 -11 37 -20 40 -20 14 -4 190 -92 223 -112 21 -13 42 -21 47 -18 4 3 10 1
12 -4 3 -11 459 -241 475 -241 6 0 13 -3 15 -7 2 -5 19 -16 38 -25 19 -9 55
-28 80 -41 25 -13 77 -39 115 -58 39 -19 72 -37 73 -41 2 -5 9 -8 16 -8 6 0
47 -18 91 -41 44 -23 110 -56 146 -75 37 -19 71 -34 78 -34 6 0 11 -5 11 -12
0 -6 3 -9 6 -5 3 3 23 -4 43 -17 36 -22 266 -136 275 -136 2 0 30 -15 63 -33
32 -18 74 -39 93 -47 19 -8 37 -17 40 -20 3 -3 131 -69 285 -145 154 -77 282
-143 285 -146 3 -3 15 -9 28 -13 12 -4 22 -12 22 -17 0 -6 4 -8 9 -4 6 3 25
-4 43 -15 37 -22 48 -25 48 -11 0 6 -26 23 -57 38 -49 24 -109 54 -273 137
-14 6 -47 24 -75 38 -27 13 -81 40 -120 59 -38 19 -71 37 -73 42 -2 4 -10 7
-18 7 -8 0 -14 5 -14 12 0 6 -3 8 -7 5 -3 -4 -12 -2 -20 4 -7 6 -13 8 -13 4 0
-4 -6 -3 -12 3 -24 19 -168 91 -168 84 0 -4 -4 -2 -8 3 -4 6 -56 35 -117 64
-60 30 -112 57 -115 60 -3 3 -12 7 -20 9 -8 2 -40 18 -70 35 -30 17 -57 32
-60 33 -26 6 -70 28 -70 35 0 5 -3 8 -7 7 -5 -1 -28 9 -53 22 -25 13 -47 24
-50 25 -3 0 -103 49 -222 108 -120 60 -220 107 -224 107 -4 -1 -10 3 -13 8 -6
9 -128 74 -133 70 -2 -1 -21 10 -43 23 -22 14 -60 34 -85 44 -25 11 -70 33
-100 50 -30 17 -71 37 -90 45 -19 8 -37 16 -40 19 -9 11 -138 74 -146 72 -4
-2 -10 1 -13 6 -8 11 -154 83 -168 83 -6 0 -13 3 -15 8 -4 9 -160 87 -170 84
-3 -1 -12 5 -18 13 -7 8 -19 15 -26 15 -8 0 -14 5 -14 12 0 6 -3 9 -6 5 -3 -3
-31 8 -63 25 -98 53 -123 65 -280 143 -85 42 -161 80 -167 86 -7 6 -17 8 -23
5 -5 -3 -11 -3 -13 1 -1 5 -30 22 -63 38 -33 17 -62 32 -65 35 -6 7 -357 180
-364 180 -3 0 -28 14 -54 30 -27 17 -57 30 -66 30 -10 0 -14 5 -10 12 5 7 3 8
-6 3 -7 -4 -15 -3 -19 2 -3 5 -136 74 -296 153 -159 80 -291 148 -293 153 -2
4 -11 7 -19 7 -9 0 -47 18 -85 40 -77 44 -78 44 -78 30z"/>
<path d="M28330 2600 c0 -5 5 -10 10 -10 6 0 10 5 10 10 0 6 -4 10 -10 10 -5
0 -10 -4 -10 -10z"/>
<path d="M28300 2580 c-8 -5 -11 -12 -7 -16 4 -4 13 -2 19 4 15 15 7 24 -12
12z"/>
<path d="M28330 2565 c-10 -12 -10 -15 3 -15 8 0 17 7 21 15 3 8 2 15 -3 15
-5 0 -14 -7 -21 -15z"/>
<path d="M28396 2537 l-17 -32 20 24 21 23 0 -30 c0 -40 14 -48 28 -17 9 20 9
23 -3 18 -10 -3 -15 2 -15 15 0 34 -15 33 -34 -1z"/>
<path d="M28512 2503 c-2 -22 0 -24 13 -13 18 15 19 26 2 33 -8 3 -14 -4 -15
-20z"/>
<path d="M28573 2458 c-20 -26 -26 -41 -15 -34 12 7 36 46 29 46 -3 0 -9 -6
-14 -12z"/>
<path d="M28624 2448 c-4 -7 -3 -8 4 -4 6 4 22 2 34 -4 22 -11 22 -10 4 4 -24
19 -32 20 -42 4z"/>
<path d="M28607 2415 c-4 -8 -3 -16 1 -19 4 -3 9 4 9 15 2 23 -3 25 -10 4z"/>
<path d="M28666 2403 c-6 -14 -5 -15 5 -6 7 7 10 15 7 18 -3 3 -9 -2 -12 -12z"/>
<path d="M28725 2380 c-17 -19 -17 -19 9 -7 14 7 26 15 26 20 0 13 -17 7 -35
-13z"/>
<path d="M28746 2361 c-4 -7 -5 -15 -2 -18 9 -9 19 4 14 18 -4 11 -6 11 -12 0z"/>
<path d="M28820 2360 c0 -5 7 -10 15 -10 22 0 30 -27 14 -47 -10 -11 -10 -14
-2 -9 7 4 17 16 23 26 9 16 5 22 -20 35 -17 9 -30 11 -30 5z"/>
<path d="M28800 2329 c0 -5 5 -7 10 -4 6 3 10 8 10 11 0 2 -4 4 -10 4 -5 0
-10 -5 -10 -11z"/>
<path d="M28460 2310 c0 -6 17 -18 38 -28 20 -9 39 -19 42 -22 6 -7 468 -235
493 -243 25 -9 21 6 -6 18 -12 6 -49 25 -82 42 -33 16 -89 45 -125 62 -36 18
-72 36 -80 40 -8 4 -46 23 -85 42 -38 19 -96 49 -128 66 -66 37 -67 37 -67 23z"/>
<path d="M28791 2307 c2 -1 13 -9 24 -17 19 -14 19 -14 6 3 -7 9 -18 17 -24
17 -6 0 -8 -1 -6 -3z"/>
<path d="M33756 2222 c-2 -4 9 -9 25 -10 19 -2 28 2 24 8 -7 12 -42 13 -49 2z"/>
<path d="M33600 2196 c0 -3 4 -16 10 -30 13 -35 28 -33 22 4 -2 17 -10 30 -18
30 -8 0 -14 -2 -14 -4z"/>
<path d="M33760 2190 c8 -5 20 -10 25 -10 6 0 3 5 -5 10 -8 5 -19 10 -25 10
-5 0 -3 -5 5 -10z"/>
<path d="M33681 2164 c0 -11 3 -14 6 -6 3 7 2 16 -1 19 -3 4 -6 -2 -5 -13z"/>
<path d="M33566 2145 c-3 -8 -1 -15 4 -15 6 0 10 7 10 15 0 8 -2 15 -4 15 -2
0 -6 -7 -10 -15z"/>
<path d="M33360 2130 c-12 -8 -10 -10 8 -10 13 0 33 -5 44 -11 18 -10 20 -9
15 6 -4 9 -7 19 -7 21 0 8 -45 4 -60 -6z"/>
<path d="M33483 2113 c9 -9 19 -14 23 -11 10 10 -6 28 -24 28 -15 0 -15 -1 1
-17z"/>
<path d="M33179 2092 c-12 -6 -14 -14 -7 -39 5 -18 13 -33 18 -33 13 0 13 17
0 25 -18 11 -11 35 13 45 12 5 15 9 7 9 -8 0 -22 -3 -31 -7z"/>
<path d="M33231 2064 c0 -11 3 -14 6 -6 3 7 2 16 -1 19 -3 4 -6 -2 -5 -13z"/>
<path d="M29423 2054 c0 -7 9 -14 19 -14 10 0 18 2 18 5 0 2 -8 9 -18 14 -14
8 -19 6 -19 -5z"/>
<path d="M33090 2060 c0 -5 5 -10 10 -10 6 0 10 5 10 10 0 6 -4 10 -10 10 -5
0 -10 -4 -10 -10z"/>
<path d="M32897 2053 c-20 -5 -15 -37 9 -63 12 -12 16 -12 23 -2 4 7 15 10 23
7 12 -5 15 0 13 19 -5 45 -18 52 -68 39z m41 -20 c-4 -22 -22 -20 -26 1 -2 10
3 16 13 16 10 0 15 -7 13 -17z"/>
<path d="M33110 2030 c0 -5 5 -10 10 -10 6 0 10 5 10 10 0 6 -4 10 -10 10 -5
0 -10 -4 -10 -10z"/>
<path d="M29406 2013 c-6 -14 -5 -15 5 -6 7 7 10 15 7 18 -3 3 -9 -2 -12 -12z"/>
<path d="M29062 2008 c6 -18 168 -101 168 -86 0 7 -34 29 -75 48 -41 19 -75
38 -75 42 0 5 -5 8 -11 8 -6 0 -9 -5 -7 -12z"/>
<path d="M29486 2004 c-19 -19 -20 -36 -4 -52 18 -18 46 -14 58 7 15 30 12 38
-6 13 -18 -26 -39 -29 -48 -6 -10 25 13 46 43 39 20 -4 22 -3 11 5 -21 14 -36
12 -54 -6z"/>
<path d="M29605 1969 c4 -5 0 -21 -9 -34 -25 -37 -19 -44 9 -10 29 36 30 41 9
49 -9 3 -12 2 -9 -5z"/>
<path d="M29240 1918 c0 -7 71 -48 158 -91 86 -43 182 -90 212 -106 30 -15 71
-35 90 -44 19 -9 63 -32 98 -51 34 -19 62 -33 62 -30 0 3 15 -3 33 -14 63 -39
167 -91 167 -84 0 4 4 2 8 -3 6 -9 44 -29 64 -34 4 -1 39 -20 79 -42 39 -22
76 -38 82 -36 7 2 -15 19 -48 38 -33 18 -61 33 -62 32 -2 -2 -105 51 -171 87
-9 5 -69 34 -132 65 -63 31 -121 61 -127 67 -7 6 -13 7 -13 2 0 -5 -4 -4 -8 1
-8 11 -205 110 -211 106 -2 -2 -7 1 -10 6 -7 9 -172 93 -184 93 -4 0 -25 11
-47 25 -25 16 -40 21 -40 13z"/>
<path d="M29675 1905 c-16 -13 -26 -24 -22 -25 5 0 16 7 25 16 12 12 17 13 20
4 3 -7 -2 -16 -9 -21 -11 -7 -10 -9 4 -9 12 0 17 8 17 30 0 17 -1 30 -2 30 -2
0 -16 -11 -33 -25z"/>
<path d="M29760 1810 c8 -5 20 -10 25 -10 6 0 3 5 -5 10 -8 5 -19 10 -25 10
-5 0 -3 -5 5 -10z"/>
<path d="M27217 1172 c-10 -10 -14 -22 -10 -25 3 -4 1 -7 -5 -7 -6 0 -14 -10
-17 -21 -4 -12 -22 -47 -41 -78 -19 -31 -34 -59 -34 -63 0 -4 57 -36 128 -71
203 -102 235 -119 267 -135 112 -57 527 -267 560 -283 22 -10 66 -33 97 -49
l57 -30 20 27 c12 14 24 37 27 50 4 12 9 23 13 23 4 0 12 12 18 28 6 15 21 42
33 59 l22 33 -39 22 c-21 13 -41 22 -45 20 -5 -1 -8 3 -8 8 0 6 -7 10 -14 10
-8 0 -42 16 -76 36 -33 19 -75 40 -93 46 -17 6 -34 14 -37 17 -7 8 -78 41 -86
40 -4 0 -10 3 -13 8 -5 7 -154 84 -171 88 -26 7 -140 70 -140 78 0 6 -3 7 -7
4 -3 -4 -12 -2 -20 4 -7 6 -13 8 -13 5 0 -4 -12 1 -27 12 -28 19 -314 162
-324 162 -3 0 -13 -8 -22 -18z m747 -428 c9 -4 21 -15 27 -26 9 -18 8 -19 -11
-13 -17 5 -23 1 -33 -24 -12 -32 -21 -38 -32 -22 -3 5 2 17 12 26 13 14 14 21
5 36 -7 10 -12 21 -12 24 0 7 25 6 44 -1z m93 -96 c2 -36 -19 -52 -54 -41 -22
8 -27 15 -24 34 4 30 18 40 51 37 19 -2 25 -9 27 -30z m60 -5 c0 -10 -9 -24
-19 -32 -27 -18 -8 -37 21 -21 12 6 19 15 16 21 -8 11 15 12 34 0 16 -11 6
-67 -14 -75 -8 -3 -25 4 -38 15 -14 10 -29 19 -34 19 -23 1 -35 18 -25 36 6
11 13 27 16 37 3 9 14 17 24 17 11 0 19 -7 19 -17z m121 -40 c-26 -56 -44 -83
-55 -87 -7 -3 -13 0 -13 7 0 18 49 87 61 87 6 0 9 -3 7 -7z"/>
<path d="M28007 653 c-12 -11 -8 -23 8 -23 8 0 15 7 15 15 0 16 -12 20 -23 8z"/>
</g>
</svg>
