<?xml version="1.0" standalone="no"?>
<!DOCTYPE svg PUBLIC "-//W3C//DTD SVG 20010904//EN"
 "http://www.w3.org/TR/2001/REC-SVG-20010904/DTD/svg10.dtd">
<svg version="1.0" xmlns="http://www.w3.org/2000/svg"
 width="4000.000000pt" height="1501.000000pt" viewBox="0 0 4000.000000 1501.000000"
 preserveAspectRatio="xMidYMid meet">

<g transform="translate(0.000000,1501.000000) scale(0.100000,-0.100000)"
fill="#000000" stroke="none">
<path d="M5647 15003 l-5647 -3 0 -7500 0 -7500 11320 0 c6226 0 11320 4
11320 8 0 5 -18 53 -41 108 -62 152 -173 489 -228 690 -216 791 -312 1649
-298 2639 12 799 92 1561 243 2325 368 1859 1262 3334 2459 4061 152 92 444
234 605 294 233 86 473 148 733 187 197 31 766 33 982 5 555 -73 1084 -223
1675 -474 224 -95 719 -341 875 -434 66 -39 248 -156 405 -258 415 -272 385
-254 429 -248 83 11 86 15 192 247 529 1153 1032 1940 1586 2481 539 526 1097
812 1788 916 100 15 184 18 505 18 344 0 403 -3 555 -23 805 -108 1535 -387
2265 -867 957 -629 1862 -1599 2587 -2772 l43 -68 0 3083 0 3082 -5938 0
c-3266 0 -9725 2 -14353 3 -4628 2 -10955 2 -14062 0z"/>
<path d="M34452 10759 c-214 -18 -457 -82 -656 -171 -659 -296 -1031 -763
-1464 -1838 -39 -96 -107 -269 -152 -385 -45 -115 -113 -286 -152 -378 -63
-151 -69 -173 -64 -212 11 -73 45 -120 176 -242 69 -64 409 -385 755 -713
1789 -1693 2525 -2353 3440 -3084 811 -649 1108 -844 1470 -964 524 -175 970
-91 1316 248 200 197 312 419 371 739 29 156 31 569 5 761 -88 630 -328 1360
-761 2313 -328 723 -812 1509 -1311 2132 -844 1052 -1710 1662 -2525 1779
-141 20 -323 26 -448 15z"/>
<path d="M26508 8060 c-131 -14 -279 -46 -409 -90 -306 -101 -533 -271 -739
-550 -567 -770 -920 -1797 -1030 -2990 -45 -493 -43 -1125 5 -1630 78 -815
257 -1574 514 -2172 67 -157 197 -411 271 -531 l61 -97 1189 0 1188 0 50 78
c184 291 344 646 615 1372 418 1118 763 2227 1311 4210 96 349 189 673 207
720 35 97 36 158 1 207 -11 16 -71 65 -134 108 -62 43 -250 178 -418 299 -528
381 -751 529 -1025 682 -329 183 -698 310 -1065 364 -156 24 -460 33 -592 20z"/>
<path d="M31270 5171 c-22 -32 -42 -111 -261 -1056 -392 -1689 -567 -2379
-805 -3187 -74 -250 -205 -653 -264 -812 -22 -60 -40 -110 -40 -112 0 -2 2273
-4 5050 -4 l5050 0 0 440 0 439 -76 -45 c-117 -69 -316 -167 -444 -217 -574
-227 -1266 -273 -1975 -132 -916 182 -1857 704 -2920 1619 -365 315 -667 599
-1270 1196 -893 884 -1011 998 -1655 1590 -260 239 -343 310 -361 310 -4 0
-17 -13 -29 -29z"/>
</g>
</svg>
