<svg xmlns="http://www.w3.org/2000/svg" width="5333.333" height="2001.333" version="1.0" viewBox="0 0 4000 1501"><path d="M0 750v750l1345.8-.1c1311.9 0 1345.6-.1 1341.7-1.9-3.8-1.7-14.6-5.5-19-6.5-1.1-.3-3.1-.9-4.5-1.5-7-2.7-8.6-3.3-10-3.5-.8-.2-4.4-1.5-7.9-2.9-3.6-1.4-7.3-2.6-8.3-2.6s-1.8-.5-1.8-1c0-.6-.3-.9-.7-.8-1 .2-6.9-1.6-11.4-3.6-2-.8-3.9-1.2-4.3-.9-.3.4-.6 0-.6-.7s-.3-1.1-.6-.7c-.4.3-2.3-.1-4.3-.9-2-.9-7.2-2.9-11.6-4.4-4.4-1.6-12.6-4.6-18.2-6.8-5.7-2.2-10.3-3.8-10.3-3.5 0 .2-1.2-.2-2.7-1.1-1.6-.8-14.5-6-28.8-11.6-35.2-13.8-54.3-21.6-58.7-24-2-1.1-4.3-2-5-2s-3.5-1.1-6.3-2.4c-13.6-6.5-17.1-8-17.7-7.8-.5.1-.8-.2-.8-.8 0-.5-.5-1-1.2-1-1.5 0-16.4-6.9-47.5-22.2-13.3-6.5-24.7-11.8-25.2-11.8s-1.1-.3-1.3-.8c-.1-.4-2.8-2-5.8-3.5s-6.2-3.2-7-3.7c-5.4-3.2-14.6-8.2-15-8.1-.3.1-1.2-.4-2.1-1.1-.8-.7-2.2-1.4-3-1.6s-2.1-.9-2.9-1.6-4-2.7-7-4.3c-9.8-5.3-47.8-30-50.9-33.1-.8-.7-2.6-2.1-4-3s-3-2.2-3.4-2.9-1.3-1.3-1.9-1.3c-1 0-6.4-4.4-21.4-17.6-7.4-6.5-7.9-7.3-7-9.5.6-1.3 1.4-2.6 1.7-2.9.4-.3 2-3 3.6-6 5.4-10.1 12.6-22.5 13.4-23 .5-.3 1.9-2.6 3.2-5.1 3.8-7 5.1-9.3 6.6-11.2.8-.9 1.1-1.7.8-1.7-.4 0 .1-.9 1.1-2 .9-1.2 1.6-2.4 1.6-2.8-.1-.4 1.1-2.6 2.7-4.9s2.9-4.6 2.9-5.1.7-1.5 1.5-2.2 1.2-1.6.9-2.1-.1-.9.4-.9 1.8-1.7 2.7-3.7c1-2 2.6-4.6 3.6-5.7 1.8-1.8 2-2.5 1.8-4.2 0-.4.4-1 .9-1.3 1.1-.7 6.7-10.2 8.5-14.3.6-1.6 1.5-2.8 1.9-2.8s.8-.5.8-1c0-.6 2-4.4 4.5-8.4 2.5-4.1 4.5-7.9 4.5-8.5s.4-1.1 1-1.1c.5 0 .9-.3.8-.7-.3-.9 3.2-6.5 4.7-7.5.5-.4.7-.8.2-.8-.4 0 .4-1.8 1.8-4s2.5-4.4 2.5-5c0-.5.5-1 1.1-1 .5 0 .7-.5.4-1-.3-.6-.2-1 .3-1s1.7-1.8 2.8-4c1-2.2 2.2-4 2.7-4 .4 0 .7-.5.7-1.1s2-4.5 4.5-8.6c2.5-4 4.5-7.8 4.5-8.3 0-.6.5-1 1-1 .6 0 1-.5 1-1.2 0-.6 2.5-5.1 5.5-10.1 3-4.9 5.5-9.1 5.5-9.4 0-.2 1.1-1.9 2.4-3.6 1.3-1.8 2.7-4.2 3.1-5.4.3-1.3 1.1-2.3 1.7-2.3s.9-.3.5-.6c-.3-.3 1.4-3.6 3.7-7.2 2.3-3.7 4.3-7.2 4.4-7.7.1-.6.9-1.8 1.7-2.7.8-1 1.3-1.8 1-1.8-.2 0 .6-1.5 1.8-3.4 1.3-1.8 3.6-5.9 5.2-9 1.5-3.1 3.2-5.6 3.7-5.6s.6-.4.3-1c-.3-.5-.1-1 .4-1 .6 0 1.1-.6 1.1-1.4 0-.7.6-1.9 1.4-2.5.8-.7 2.4-3.1 3.5-5.4s3.5-6.5 5.1-9.2c1.7-2.8 3.3-5.8 3.7-6.7.3-1 .9-1.8 1.4-1.8s.9-.5.9-1.1 2-4.4 4.5-8.5c2.5-4 4.5-7.8 4.5-8.4 0-.5.5-1 1-1 .6 0 1-.6 1-1.3s.7-2.2 1.5-3.2c1.6-2.1 9-14.7 13.3-22.8 1.4-2.6 2.9-4.7 3.4-4.7.4 0 .8-.6.8-1.3s1.6-3.8 3.5-6.9c2.9-4.5 4-5.5 5.8-5.2 1.2.2 3.8.6 5.7.9s4.9 1 6.5 1.5c2.9.9 14.6 3.4 21 4.5 3.3.5 4.1.7 13 2.9 3.3.8 6.3 1.2 6.7 1 .5-.3.8 0 .8.5 0 .6.3 1 .8.9 1.3-.4 10.6 1.3 15.7 2.8 2.8.8 6.4 1.7 8 2 2.7.4 13.1 2.7 18 3.9 1.1.3 4.5 1 7.5 1.7 3 .6 5.7 1.2 6 1.3 2.3.7 5.9 1.6 8 2 1.4.2 5.2 1.1 8.5 1.9s8.9 2.1 12.5 3c3.6.8 10.6 2.5 15.5 3.6 5 1.2 10.8 2.6 13 3.1 2.2.4 12.8 3.1 23.5 5.8s19.8 4.7 20.2 4.5c.4-.3.8 0 .8.5 0 .6.3 1 .8.9.4-.1 2.7.1 5.2.5 2.5.5 4.6.8 4.8.7.1 0 1.6.7 3.3 1.6 1.7.8 3.3 1.3 3.6 1s1.8.1 3.3.9 2.9 1.2 3.2 1c.2-.2 2.6.3 5.3 1.1 2.8.9 6.6 1.8 8.5 2.1s4.7 1.1 6.1 1.9c1.5.7 2.9 1.1 3.1.9.3-.3 3.1.3 6.4 1.4 7.1 2.2 11.4 3.4 13.4 3.6.9.1 3.2.7 5.1 1.4 2 .6 4.6 1.3 5.8 1.6 1.2.2 5.6 1.4 9.9 2.5 4.2 1.2 8.5 2.3 9.4 2.5s2.5.8 3.6 1.4 2.2.8 2.5.5 1.9.2 3.7 1.1 3.4 1.4 3.7 1.1 1.8.1 3.3.9c1.6.8 4.2 1.6 5.9 1.7s3.1.5 3.1.8c0 .4.6.7 1.3.7.6 0 4.4 1 8.2 2.1 3.9 1.2 8.1 2.3 9.5 2.6 1.4.2 4.5 1.1 7 2 2.5 1 5.4 1.8 6.5 2 1.1.1 3 .8 4.1 1.4 1.2.6 3.6 1.3 5.3 1.4s3.1.6 3.1 1 .3.7.8.6c.7-.2 15.7 4.2 21.7 6.3 1.7.6 4 1.2 5.1 1.5 1.2.2 3.8 1.1 5.8 1.9s3.8 1.5 4.1 1.5c1.1-.1 12.4 3.2 18.5 5.5 9.3 3.3 19.3 6.6 20.8 6.7.6.1 1.2.5 1.2 1s.4.7.9.4 2.5.1 4.5.9 3.6 1.3 3.6 1c0-.2 2.5.7 5.7 2 3.1 1.4 5.8 2.3 6.1 2s1-.1 1.6.4 6.1 2.6 12.1 4.6c6.1 2.1 11.6 4.2 12.3 4.8.6.5 1.2.7 1.2.3s1.3 0 2.9.9c1.7.8 3.8 1.7 4.8 1.8 1 .2 2.7.7 3.8 1.1s5.4 2 9.5 3.6c4.1 1.5 8.4 3 9.5 3.4l2 .6-2-1.6c-1.1-.9-3.8-2.5-6-3.5-2.2-1.1-4.7-2.4-5.5-2.8-.8-.5-6.9-3.5-13.5-6.7s-12.2-6.2-12.5-6.6c-.3-.3-1.8-1-3.3-1.3-1.5-.4-2.7-1.1-2.7-1.6s-.5-.9-1-.9c-.6 0-3-.9-5.2-2-2.3-1.1-4.8-2-5.5-2s-1.3-.5-1.3-1c0-.6-.6-1-1.4-1-.7 0-1.9-.7-2.6-1.5-.7-.9-1.5-1.3-1.7-1.1-.3.3-2.6-.8-5.1-2.4-2.6-1.5-5.8-3.1-7.2-3.5s-2.9-1.1-3.5-1.5c-.5-.4-10.2-5.4-21.5-11s-22.5-11.3-25-12.6c-2.5-1.4-6.1-3.2-8-4.1-1.9-.8-4.4-2-5.5-2.6s-21.3-10.8-45-22.7c-23.6-11.9-44-22.2-45.2-23-1.5-1-2.7-3.5-3.9-8.5-.9-3.8-2.1-7.5-2.6-8.1-.5-.7-.8-1.6-.7-2 .3-.9-1.7-8.4-3.1-11.9-.5-1.1-1.8-5.8-3.1-10.5-1.2-4.7-3.3-12.3-4.7-17-2.5-8.7-8.7-32.4-10.3-39.5-.5-2.2-1.2-4.7-1.6-5.5s-.8-2.2-1-3c-.1-.8-1.6-6.2-3.2-12s-3.6-13.4-4.5-17-2.3-8.5-3.1-11-1.9-6.8-2.5-9.5c-.6-2.8-1.5-5.9-2-7s-1.9-5.6-2.9-10c-2-7.8-5.3-20.2-9.2-33.5-1-3.6-3.2-11.5-4.8-17.5-1.6-6.1-3.9-14.4-5.1-18.5s-3.5-12.2-5-18c-1.6-5.8-3.8-13.7-4.9-17.5-1.1-3.9-3.6-13.1-5.6-20.5s-4.3-15.8-5.1-18.5c-.7-2.8-2.5-9.5-3.9-15s-3-10.9-3.5-12c-1.4-3.1-3-9.7-3-12.5 0-2.7 4.8-6.2 18.5-13.5 3.9-2.1 7.2-4.1 7.5-4.4.7-1 5.8-3.9 16.5-9.6 5-2.7 11.2-6.3 14-8.2 2.7-1.8 5.3-3.3 5.6-3.3.4 0 6.1-3.1 12.8-7 6.6-3.8 12.4-7 12.8-7 .5 0 3.5-1.8 6.8-4s6.6-4 7.3-4c.6 0 1.2-.5 1.2-1 0-.6.5-1 1-1 .6 0 4.8-2.1 9.3-4.7 8.3-4.7 17.2-9.6 26.2-14.2 2.8-1.4 5.2-2.9 5.5-3.2.3-.4 4.6-2.8 9.5-5.4 5-2.6 9.5-5.1 10-5.5.6-.4 4.6-2.7 9-5 15.4-8.2 23-12.3 26.5-14.5 1.9-1.2 5.1-2.7 7-3.5 1.9-.7 4-1.7 4.5-2.1 1.8-1.3 13.7-7.8 22-12 4.4-2.2 12.1-6.3 17-9 5-2.7 10.6-5.6 12.6-6.5 2-.8 5.6-2.6 8-4s9.8-5.2 16.4-8.4c6.6-3.3 13.8-7 16.1-8.2 2.2-1.3 7-3.7 10.7-5.3 3.7-1.7 6.7-3.3 6.7-3.8 0-.4.7-.7 1.5-.7 1.4 0 5.3-1.8 6.5-3 .3-.3 3-1.7 6-3.2 3-1.4 12.9-6.2 22-10.7s17.1-8.1 17.8-8.1c.6 0 1.2-.5 1.2-1 0-.6.6-1 1.3-1 .6 0 2.6-.7 4.2-1.6 1.7-.9 4.6-2.2 6.6-2.9s5.4-2.4 7.5-3.7c2.2-1.3 5.5-3 7.4-3.8 3.3-1.2 13.4-5.9 29.5-13.5 6.8-3.2 14.9-6.8 19-8.5 3.2-1.3 10.1-4.4 22.5-10 6.3-2.8 12-5.3 12.5-5.4 1.7-.5 4.7-1.7 10.2-4.2 2.8-1.3 5.6-2.4 6.2-2.4s2.7-.9 4.8-1.9c6.7-3.4 26.7-11.8 29.8-12.6.6-.1 2.4-.8 4-1.4 1.7-.7 6.6-2.4 11-3.8s9.4-3.2 11.2-3.9c1.7-.8 3.6-1.4 4.2-1.4s1.1-.4 1.1-.8c0-.5.6-.9 1.3-1 1.1 0 8.1-2.4 11.7-3.9.8-.3 1.7-.7 2-.8 2-.5 8.9-2.8 10.5-3.5 1.9-.8 19.4-6.5 45.5-14.9 13.1-4.1 27-8 40.5-11.2 4.4-1.1 8.7-2.1 9.5-2.4 5.9-1.5 35.4-7.3 41-7.9 1.4-.2 5.7-.9 9.5-1.5 3.9-.7 10.5-1.4 14.8-1.5 7.2-.3 7.8-.2 8.2 1.8.3 1.2 1.1 5 2 8.6l1.5 6.5-3.7 3.3c-4.3 3.8-10.7 7.5-16 9.2-4.3 1.4-11.6 4.9-12.3 6-.3.4-3.9 2.4-8 4.6-9.2 4.7-20 11.4-20 12.3 0 .4-1.3 1.5-3 2.4-3.3 2-4.4 3-19.9 18.1-6.1 5.9-11.1 11.1-11.1 11.5 0 .3-1.1 1.8-2.5 3.3s-2.5 3.1-2.5 3.7c0 .5-.6 2.2-1.4 3.8-3.4 6.8-4.4 10.1-5.5 18.7-.6 4.8-.4 6.9 1.1 10.9 2.7 7 7.3 13.2 11.6 15.3 2.1 1.1 5.4 3.2 7.5 4.7 2 1.6 3.7 2.4 3.7 1.8 0-1.3 3.7-1.5 4.5-.2.3.6 1.7.4 3.3-.5 1.5-.7 3.6-1.4 4.6-1.4 2.6 0 15.9-4 17-5.1.6-.5 2-.9 3.2-.9s2.7-.7 3.4-1.5 1.7-1.5 2.2-1.5c.6 0 2.4-.6 4.1-1.4 1.8-.8 5-2 7.2-2.6 2.2-.7 4.5-1.6 5-2 .6-.4 3.5-1.5 6.5-2.5 3-.9 6.9-2.3 8.7-3.1 1.7-.8 3.3-1.4 3.6-1.4.9 0 18.2-8.2 18.7-8.9 1.1-1.4 8.7-6.1 9.8-6.1 1.2 0 2.2 3 5.7 18 1.3 5.2 4.1 16.7 6.3 25.5s5 20.3 6.1 25.5c1.2 5.2 3.5 15.3 5.1 22.5 1.6 7.1 3.8 16.8 5 21.5s3.7 15 5.5 23 4.3 18.3 5.5 23 2.3 9.2 2.5 10c.1.8.8 3.5 1.5 5.9.6 2.3 2 8.2 3.1 12.9 2.7 11.5 5.4 22.3 7.3 29.7.9 3.3 3.4 13.4 5.6 22.5 2.3 9.1 5.4 21.9 7 28.5 1.7 6.6 3.2 12.9 3.5 14 .5 2.5 3.8 15.1 6 23 .9 3.3 2.2 8.7 3 12s2.3 9.6 3.5 14 2.3 8.7 2.4 9.5c.2.8.6 2.2.9 3s1.6 5.3 2.7 10c1.2 4.7 3.2 12.5 4.5 17.5 1.3 4.9 3.5 13.7 4.9 19.5 1.5 5.8 3 11.4 3.5 12.5s1.6 4.9 2.5 8.5c3.3 13.3 5.7 22.5 6.3 24 .3.8.7 1.9.8 2.5 0 .5.4 1.7.7 2.5s1.3 4.4 2.2 8c.8 3.6 2.9 11.4 4.6 17.5 1.7 6 3.7 13.5 4.5 16.5.9 3 2 6.4 2.5 7.5s1.8 5.6 2.9 10c3.3 13.5 5.1 19.9 6.2 21.8.5 1 .7 2.2.4 2.7-.4.6-.2 1 .2 1 .5 0 1.6 3.7 2.7 8.2 1 4.5 2.2 8.8 2.7 9.7s1.5 4.1 2.3 7.1 2.7 9.5 4.1 14.5c3.2 11 3.1 10.7 3.8 12.5.3.8 2 6.2 3.7 12 9.4 31.2 12.6 41.5 18.5 59.5 2.8 8.8 6.9 21.4 8.9 28 2.1 6.6 4.2 12.9 4.7 14 .4 1.1 4.9 14.1 9.8 29 4.9 14.8 9.5 28.3 10.2 30 .7 1.6 1.3 3.4 1.5 4 .1.5 2.1 6.4 4.4 13s5 14.7 6.1 18 2.6 7.4 3.4 9.2c.8 1.7 1.5 3.5 1.5 4 0 .4 3.9 11.5 8.6 24.6 4.8 13.1 8.5 24 8.3 24.2s-5.3 3.3-11.4 6.9c-6 3.6-14.3 8.6-18.3 11.1-4.1 2.6-8.1 4.9-9 5.2-1 .4-1.9.9-2.2 1.2-.3.4-1.6 1.2-3 1.9s-5.6 3.3-9.5 5.7c-3.8 2.4-8.5 5.1-10.2 5.9-1.8.8-5.3 2.9-7.7 4.5-2.5 1.7-4.7 3.1-4.9 3.1-.3 0-6 3.2-12.8 7.2-6.8 3.9-15.5 8.8-19.4 10.8-3.8 2.1-10.5 5.8-14.8 8.4-4.3 2.5-8.2 4.6-8.5 4.6-.4 0-5.2 2.6-10.7 5.8-5.5 3.1-13.1 7.3-17 9.1-3.8 1.9-7.2 3.7-7.5 4.1s-3.6 2.2-7.5 4.2c-3.8 1.9-11 5.7-16 8.3-12.7 6.8-16.3 8.5-17.4 8.5-.5 0-1.1.3-1.3.8-.1.4-5.5 3.2-11.8 6.3-11.4 5.6-43.3 21.1-52 25.3-2.5 1.1-4.7 2.4-5 2.7s-2.1 1.1-4 1.9c-3.3 1.2-6.5 2.7-22.5 9.9-3.8 1.8-8.6 3.9-10.5 4.8-1.9.8-4.8 2.1-6.5 2.8-12.6 5.7-33.3 14.5-33.9 14.5-.4 0-2.8.9-5.3 2.1-2.4 1.1-7.9 3.4-12.1 5-4.3 1.7-9 3.6-10.7 4.4-1.6.7-7.7 3-13.5 5-5.8 2.1-11.6 4.3-13 5s-5.4 2.2-9 3.3c-12.7 4.1-28.4 9.5-32.5 11.2-1.1.5-6.7 2.3-12.5 4s-12.3 3.7-14.5 4.5c-17.8 5.7-32.1 9.6-46.5 12.6-5.2 1.1-10.4 2.4-11.5 2.9-1.9.8-21 5.1-40.5 9.1-5.2 1-11.3 2.3-13.5 2.8-2.4.5 184 .9 453.3 1l457.2.1V0H0zM3803 6.4c0 .3-.4.8-1 1.1-.5.3-1 .1-1-.4 0-.6.5-1.1 1-1.1.6 0 1 .2 1 .4m-3 6.4c0 1-2.2 3.2-3.2 3.2-.5 0-.3-.9.4-2 1.3-2 2.8-2.7 2.8-1.2m-327.2 105.5c1.9 1.5 1.4 2.7-1.2 2.7-1.7 0-2.5-.7-2.8-2.4-.4-1.9-.1-2.3 1.1-1.9.9.4 2.2 1 2.9 1.6m-9.8 6.6c0 .6-.4 1.3-1 1.6-.5.3-1-.1-1-.9 0-.9.5-1.6 1-1.6.6 0 1 .4 1 .9m6 2.1c0 2.1-1.5 2.7-2.5 1-.7-1.2.2-3 1.6-3 .5 0 .9.9.9 2m15.8 2.2c-.5 3.2-2.8 3.5-2.8.4 0-1.7.5-2.6 1.6-2.6 1 0 1.4.7 1.2 2.2m3.2 3.3c0 .8-.4 1.5-1 1.5-.5 0-1-.7-1-1.5s.5-1.5 1-1.5c.6 0 1 .7 1 1.5m9.1 1.6c3.7 2.9 5 6.1 3 7.3-1.4.9-4-.4-4.6-2.4-.4-1.1-1.2-1.6-2.4-1.3-2.3.6-4.2-1.8-3.4-4.5.7-3 2.8-2.8 7.4.9m130.3 10.4c.3.9 0 1.5-.9 1.5-.8 0-1.5-.7-1.5-1.5s.4-1.5.9-1.5 1.1.7 1.5 1.5m-31.4 9.9c0 .8-.4 1.8-1 2.1-.5.3-1-.3-1-1.4 0-1.2.5-2.1 1-2.1.6 0 1 .6 1 1.4M2505.9 888.2c6 3 6.9 4.1 5.2 6.7q-.9 1.35-2.7.6c-1.1-.5-2.2-.7-2.6-.7-.5.1-.8-.3-.8-.8 0-.6-.7-1-1.5-1-2.1 0-1.9 1.8.4 2.5 3.3 1 4.4 3.1 2.6 4.8-1.3 1.4-2 1.4-4.8.2-3-1.3-3.3-1.2-5.3 1.2-1.8 2.2-2.3 2.4-4.2 1.4l-2.3-1.2 3-5.3c4.2-7.8 6.2-10.6 7.4-10.6.5 0 3.1 1 5.6 2.2m15.5 7.9c1.7.8 2.3 1.8 2.1 3.3-.2 1.1-.7 4.3-1.1 7.1-.4 2.7-.8 5.8-1 6.7-.1 1-.2 2.3-.3 2.8 0 .6-1.4.4-3.1-.5s-2.9-1.9-2.6-2.3c.6-1.1-.5-2.5-2.9-3.8-1.6-.9-2.3-.8-3.3.2-1 1.1-1.8 1.1-3.2.4-1.1-.6-2-1.5-2-1.9 0-.8 4.1-4.5 12-11 3-2.4 2.4-2.3 5.4-1m20.2 10.8c1.1.9 1.9 2.2 1.6 2.9-.2.6.1 1.2.7 1.2s1.1-.4 1.1-.9c0-.8 2.8-.8 3.8-.1.1.2.5.3 1 .4 2.3.6 9.2 4.8 9.2 5.7 0 .6.6.9 1.4.6s2.2 0 3.2.7c1.6 1.2 1.5 1.6-1.1 7-4.4 9 .5 10.3 5.5 1.4 2.2-3.9 5.6-5.1 6.6-2.4.8 2.1-4.2 10.2-7.8 12.7-2.6 1.9-3.4 2-6.7 1-4.5-1.3-6.4-4.8-5.5-9.7.3-1.9 1-3.4 1.4-3.4.9 0 3.2-5.1 2.5-5.8-.3-.3-.5 0-.5.5 0 1.2-1.8 1.2-3.7 0-.9-.5-2.3.8-4.3 3.9-1.6 2.6-3.1 5.1-3.3 5.7-.4 1.4-5.6 0-5.3-1.5.1-.7 1.5-3.5 3.1-6.2l2.8-4.8-2.4-1.9c-1.3-1-3.1-1.8-4-1.6-.9.1-2.7-.7-3.9-1.8-2.3-2-4.3-1.5-6.4 1.7-1.3 2.1.9 4.8 3.9 4.8 2.5 0 4 3.3 2.1 4.9-1.8 1.4-7.7.5-9.8-1.7-2.7-2.6-3.2-9-1-12 1-1.3 3.6-2.9 5.7-3.6 4.2-1.5 5.7-1.1 10.1 2.3m41.1 20.2c5.9 3.3 7.4 4.9 6.3 6.9-.5 1-.7 2-.4 2.2.3.3-.9 1.7-2.5 3-3.1 2.7-4.5 6.3-2.4 6.3 1.2 0 3.6-1.8 11.2-8.2 3-2.6 3.5-2.7 6.2-1.3 1.4.8 1.8 1.8 1.4 3.9-.2 1.5-.7 4.5-1 6.7-1 8.2-1.6 9.5-3.8 9.2-1.2-.2-2.3-1.2-2.5-2.3-.7-3.6-2.4-4.7-6.1-4.1-5.3.8-12.1-3.4-12.1-7.4 0-3.4-1.4-3.9-3-1-1.3 2.3-2 2.5-4.4.7-1.6-1.2-1.4-1.8 2.6-9 2.4-4.2 4.8-7.7 5.5-7.7s2.9.9 5 2.1"/><path d="M2516.1 904.6c0 1.1.3 1.4.6.6.3-.7.2-1.6-.1-1.9-.3-.4-.6.2-.5 1.3M2579 933c0 1.9.5 2.5 2.4 2.7 1.3.2 1.7-.1 1.2-1.3-.3-.8-.6-1.8-.6-2s-.7-.4-1.5-.4-1.5.4-1.5 1m644-497.8c0 3.2.7 4.7 3.4 7.4 3.1 3.1 3.3 3.8 3.2 9.1-.1 5.7 0 5.8 3.5 7.6 4.4 2.1 7.4 1.4 6.4-1.7-.4-1.1-1.3-5-2.1-8.6-1.4-6.4-5.2-16-6.3-16-.3 0-2.3-.4-4.3-.9l-3.8-.9zm-14.2.3c-.3.3.4 5 1.5 10.6 1.7 8.3 2.5 10.5 5.2 13.4 2.3 2.6 4 3.5 6.3 3.5 2.7 0 3.2-.4 3.2-2.4 0-2.6-1.3-4-4.9-5.1-1.4-.4-3.3-1.6-4.4-2.6-2.2-2-2.1-2.6 2.4-9.7l2.1-3.3-2.8-2.4c-2.6-2.3-7.3-3.3-8.6-2m-14.3 4.5c-.3.5.1 3.7 1 7.2s2 8.1 2.6 10.3c.5 2.2 1.5 4.7 2.2 5.6 1.9 2.5 7.6 5.1 9.8 4.4 1.7-.6 1.9-1.2 1.3-4.3-.4-2-1.2-5.5-1.9-7.7s-1.6-5.5-2-7.4c-1.1-5-5.1-9.1-9.1-9.1-1.8 0-3.5.4-3.9 1m-300.9 159.9c-2.3 2.4-2.7 3.5-2.2 5.7.9 3.6 3.3 5.3 7.3 5.4 5.9 0 9.1-6.1 5.6-10.8-2.9-3.9-7.1-4-10.7-.3m7.8 1.7c1.5 3.8.1 6.4-3.4 6.4-1.8 0-3.1-3.9-2-6 1.3-2.4 4.5-2.6 5.4-.4m-18.8.2c-.8 1.3 2.8 11.5 4.2 12 1.6.5 1.5-3.4-.2-8.3-1.4-4-2.9-5.4-4-3.7m-15.1 3.9c-1.1 1-1.1 2.2 0 6.4 1.7 6.4 2.3 7 4.2 4.2 1.2-1.8 1.9-2.1 3.5-1.2 2.7 1.4 5.4.4 3.9-1.5-.7-.8-.9-2.5-.6-3.9.9-3.4-1.7-5.7-6.1-5.5-2 .1-4.2.7-4.9 1.5m6.8 2c.8.7-1.1 3.3-2.4 3.3-.5 0-.9-.9-.9-2 0-1.9 2-2.7 3.3-1.3m-21.3 1.8c-1.4 1.7-2.7 13.5-1.4 13.5.5 0 1.8-.9 2.8-2.1 1.4-1.6 2.5-2 5-1.5 1.8.3 3.5.3 3.9-.1.8-.7-1.3-4.2-5.1-8.4-2.9-3.3-3.5-3.5-5.2-1.4m-16.7 3.6c-3.9 1.1-4.1 2.1-.8 3.9 1.6.8 2.7 2.5 3.1 4.7.4 2.4 1.2 3.3 2.5 3.3 1.9 0 2-1.6.3-6.9-.2-.8.3-2.4 1.1-3.7 1.5-2.3 1.4-2.4-.7-2.3-1.3 0-3.8.5-5.5 1m-16.1 5.1c-.5.7-1.3 4.1-1.7 7.5-.8 6.8.3 8.1 3 3.9 1.4-2.1 2-2.3 5-1.6 4.5 1 5.2-.2 2.3-4.2-4.6-6.6-6.7-7.9-8.6-5.6m-12.2 4.7c0 2.7-1.3 3.3-3.6 1.6-2.5-1.9-6.4-1.9-6.4 0 0 .8.5 3.5 1.2 6 .9 3.2 1.7 4.5 3 4.5s1.8-.8 1.8-2.5c0-2.9.8-3.1 3.6-1 2.6 2 5.4 1.9 5.4-.3 0-2.7-2.7-9.6-3.9-10-.6-.2-1.1.5-1.1 1.7m-17.5 3c-.8 1.5.5 8.4 2.1 10.6 1 1.3 1.7 1.6 2.5.8.7-.7.6-2.7-.6-6.7-1.6-5.4-2.7-6.7-4-4.7m-12.2 2.2c-4 1.2-5.2 2.9-2.4 3.6 1.2.3 2.5 1.9 3.2 4.2 1.5 4.6 2.6 5.8 4 4.4.8-.8.8-2.1-.1-4.8s-.9-4-.1-4.8c1.5-1.5 1.4-3.7-.1-3.6-.7 0-2.7.5-4.5 1m-16.5 5c-2.6 1.5-2.2 4.6.8 6.5 2.2 1.5 2.3 1.9 1 2.6-.9.5-1.6 1.3-1.6 1.8 0 1.3 5.6 1.3 8.1 0 3.4-1.9 1.8-7-2.3-7-2.2 0-2.4-1.8-.3-2.6.8-.4 1.5-1 1.5-1.5 0-1.2-5.1-1.1-7.2.2m-15 3.5q-4.35 2.25-1.8 3.9c.6.4.8 1 .5 1.5-.3.4.2 2.4 1 4.3 1.4 3.4 1.5 3.5 5.2 2.6 2.1-.5 4.1-.9 4.6-.9.4 0 .7-.7.7-1.5 0-1-1.1-1.5-3.2-1.6-3.3 0-3.3 0-1-1.6 3-2.1 2.8-3.3-.5-3.4-1.7 0-2.2-.3-1.3-.6 2.1-.9 4-3 3.3-3.7-1.1-1-4.7-.6-7.5 1m674.9 3c-.3.3-2.3 1-4.4 1.5-15.5 3.7-22.4 5.4-41.8 10.4-12.1 3.2-25.4 6.5-29.5 7.5s-8.2 2.1-9.1 2.4c-.8.4-6 1.7-11.5 3-15.2 3.7-49 12.2-61.9 15.6-4.4 1.2-14.3 3.6-22 5.5-7.7 1.8-17.6 4.3-22 5.5s-12.7 3.3-18.5 4.6c-5.8 1.4-10.6 2.7-10.8 2.9-.5.5 3.6 16.8 5.6 22.7 1 2.9 2.3 4.8 3.2 4.8 1.4-.1 6.3-1.2 25-6 4.1-1.1 13.1-3.3 20-5 6.9-1.6 13.2-3.2 14-3.5 1.6-.5 9.5-2.4 30-7.5 6.9-1.7 16.8-4.1 22-5.5 5.2-1.3 15.1-3.7 22-5.5 6.9-1.7 15.9-4 20-5 4.1-1.1 13.8-3.5 21.5-5.4s17.6-4.4 22-5.6 12.7-3.2 18.5-4.5c5.8-1.4 12.9-3.2 15.8-4.1l5.3-1.6-.7-3.7c-.4-2-1-4.3-1.4-5.1s-1.3-4.2-2-7.5c-1.7-8.2-3.5-11.5-6.4-11.5-1.2 0-2.5.3-2.9.6M3313 682.5c0 .8-.4 1.5-.9 1.5-1.3 0-2.2-1.6-1.4-2.4 1.1-1.1 2.3-.6 2.3.9m-14 1.9c0 .3-.4.8-1 1.1-.5.3-1 .1-1-.4 0-.6.5-1.1 1-1.1.6 0 1 .2 1 .4m11.5 2.4c-.7.8-3.5-.7-3.5-1.8 0-.6.7-.6 2 .2 1 .7 1.7 1.4 1.5 1.6m-16.9 2c-.9.8-2.6-1-2.6-2.6.1-1.5.2-1.5 1.5.2.8 1.1 1.3 2.1 1.1 2.4m-562.1-48.1c-3.3.8-3.7 1.8-2.4 6.9 1.5 6.4 2 6.8 6.3 5.4 4.5-1.5 6.9-4.8 6-8.4-1-4-4.2-5.3-9.9-3.9m5.3 3.5c1.3 1.7-.3 5.8-2.2 5.8-1.7 0-3.2-4.2-2.1-5.9.8-1.5 3-1.4 4.3.1m439.2 58.7c-.8.5-5.5 1.8-10.5 2.9-14.7 3.3-26.9 6.4-29 7.3-1.1.4-5.4 1.6-9.5 2.5s-13.6 3.2-21 5.1-18.4 4.7-24.5 6.1c-6 1.5-11.5 3-12.1 3.4-1.2.8 4.3 24 6.1 25.7.6.6 10.3-1.4 26.5-5.5 14-3.6 30.2-7.6 36-9 11.8-2.9 30.2-7.4 40-9.8 10.7-2.7 13-3.6 13-5.4 0-.9-1.1-5.5-2.4-10.2s-2.7-9.7-3-11.3c-.6-2.4-1.1-2.7-4.4-2.7-2 0-4.4.5-5.2.9m-15.6 19.3c.4 1.7.2 2.8-.4 2.8-.5 0-1-.9-1-1.9 0-1.1-.5-2.1-1.1-2.3-.5-.2-.7-1.1-.3-2.2.8-2.1 1.7-.9 2.8 3.6m-10.4.7c0 .5.3 1.6.6 2.5s.1 1.6-.5 1.6-1.1-.7-1.1-1.5-.4-1.5-1-1.5c-.5 0-1-.5-1-1 0-.6.7-1 1.5-1s1.5.4 1.5.9m-7.9 1.4c-.1 1.2-1.5.9-1.9-.4-.3-.6.1-1 .8-.8.6.3 1.1.8 1.1 1.2m-13.3 3.5c.2.7-.3 1.2-1.2 1.2s-1.6-.7-1.6-1.6c0-1.7 2.2-1.4 2.8.4m5.8.7c.6 2.4 0 4.4-1 3.4-1.1-1.1-1.7-5.9-.7-5.9.6 0 1.3 1.1 1.7 2.5m12.9-1.5c-.3.5-1.4 1-2.3 1-1.5 0-1.5-.2-.2-1 2-1.3 3.3-1.3 2.5 0m-27.4 3.9c-.6 1-.9 2-.8 2.2s-.3-.2-1-1c-1.4-1.6-.8-3.1 1.3-3.1 1.1 0 1.2.4.5 1.9m-4.1 4.2c0 .5-.8.9-1.7.9-1.5 0-1.6-.2-.3-1s1.1-1.1-.7-1.6c-2.4-.7-2.8-1.5-1.6-2.8.8-.8 4.3 2.9 4.3 4.5m-62-1.4c-3 .8-10.7 2.7-17 4.2s-12.2 3-13 3.4c-.8.3-4.6 1.3-8.5 2.2-17 4-31.7 7.6-41 10-5.5 1.5-15.4 3.9-22 5.5s-16.5 4-22 5.5c-5.5 1.4-15.4 3.9-22 5.5s-15.6 3.8-20 5c-4.4 1.1-8.9 2.2-10 2.5-4.2.9-31.1 7.6-48 11.9-11.5 3-39.1 9.8-47.5 11.7-11.9 2.8-12 2.8-12 5 0 2.6 3.1 15.1 4 16.4.4.5 1.1 2.5 1.5 4.3s1.2 3.5 1.9 3.8c1.3.5 2.5.2 17.1-3.6 7.1-1.9 30.6-7.6 34.5-8.3.8-.2 2.2-.6 3-1 .8-.3 4.4-1.2 8-2.1 3.6-.8 12.1-2.9 19-4.6s17-4.1 22.5-5.5c5.5-1.3 15.6-3.8 22.5-5.5s15.4-3.7 19-4.5 8.8-2.2 11.5-3c2.8-.8 9.7-2.6 15.5-3.9s14.3-3.4 19-4.6 9.2-2.4 10-2.6c15.5-3.8 56.2-13.7 69.5-16.9 18.7-4.5 20.8-5.3 19.9-7.4-.3-.9-1.7-5.9-3-11.1-2.7-10.5-4.2-14-5.8-13.9-.6 0-3.6.7-6.6 1.6m-118 42.8c0 .8-.7 1.5-1.5 1.5-1.6 0-2-1.2-.8-2.3 1.1-1.2 2.3-.8 2.3.8m-9 2.4c0 1.1-.4 2.3-1 2.6-.5.3-1 .1-1-.5 0-.8-.9-1-2.5-.6-2.9.7-3.4-.8-.7-2.3 2.8-1.7 5.2-1.3 5.2.8m11.5 1.1c-.3.5-1.6 1-2.8 1-1.8 0-1.9-.2-.7-1 2-1.3 4.3-1.3 3.5 0m-22.5 1c0 .5-.4 1-1 1-.5 0-1 .4-1 1 0 .5.7 1 1.5 1s1.5.5 1.5 1.1-1.2.9-2.7.7c-3.4-.4-4.6-4.3-1.6-5.1s3.3-.7 3.3.3m-8.3 1.9c-.2 1 0 2.7.5 3.7.6 1.1.1.9-1.1-.6-2.5-3-2.7-5-.5-5 1.1 0 1.5.6 1.1 1.9m17.9-40.5c-2.1 4.5-2 5.6.7 5.6 1.2 0 3.2.3 4.5.6 2.6.7 2.9-1.2 1.1-6.5-1.5-4.2-4.2-4.1-6.3.3m-11.9.3c-1.2 1.1-.8 2.3.6 1.8.6-.3 1.8-.1 2.6.4 1.2.7 1 1.4-.8 3.7-2.6 3.3-1.5 4.9 2.8 3.9 2.9-.6 4.4-2.5 2-2.5-.7 0-.9-1.1-.6-2.9.3-1.5.1-3.3-.6-4-1.2-1.2-5-1.5-6-.4m-11.5 3.3c-1.2 1.2-2.2 2.9-2.2 4 0 2.3 3.7 6 5.9 6 3 0 4.5-1.8 4.5-5.5 0-2.5-.6-4.2-1.9-5.1-2.5-1.9-3.7-1.8-6.3.6m5.3 3c.7 2.1 0 4-1.5 4-1.3 0-3.2-3.9-2.5-5 1-1.7 3.3-1.1 4 1m-15.7-1.3c-2.4.6-2.3 2.3.1 2.3 3 0 3.5 1.9 1.2 4.4-1.2 1.2-2.1 2.8-2.1 3.4 0 1.7 4.9 1.5 6.6-.3q1.5-1.5.3-1.5c-.8 0-.9-1-.5-3.1.9-4.8-.9-6.4-5.6-5.2m-8.3 6.9c-.3 2.6-.9 5.3-1.2 6-.3.8-.1 1.4.5 1.4.5 0 1.3-1.7 1.7-3.8.3-2 .9-4.7 1.2-6 .3-1.2.1-2.2-.5-2.2-.5 0-1.3 2.1-1.7 4.6m-10.6 1.1c-1.4.3-1.5.9-.6 3.6.7 1.8 1.2 3.3 1.3 3.5s1.3 0 2.8-.4c2-.5 2.4-1 1.7-2.1-.5-.9-.6-2.4-.4-3.4.5-1.9-.9-2.3-4.8-1.2M2855 760c0 1.6.2 3 .4 3s.6-1.4.8-3c.3-1.7.1-3-.4-3-.4 0-.8 1.3-.8 3m8.7-2.2c-2.2.3-2.7.7-2.2 2 .4.9.9 2.5 1.2 3.4.3 1 1.4 1.6 2.6 1.4 2.4-.2 2.9-.9 2.2-2.8-.2-.7-.5-2-.7-2.8-.2-1-1.2-1.4-3.1-1.2m-19.6 5.3c-1.9.7-2.2 1.2-1.3 2.1.7.7 1.2 2.2 1.2 3.3 0 1.8.5 2.1 3 1.7s2.9-.8 2.4-2.4c-.3-1.1-.7-2.8-.8-3.6-.3-2-1.5-2.3-4.5-1.1m-9.2 2.3c-2.3 1-2.5 1.4-1.7 3.8.7 2.1 1.6 2.8 3.4 2.8 2.3 0 2.4-.2 1.8-3.8-.4-2-.7-3.7-.8-3.8 0-.1-1.3.4-2.7 1m18.7 2.5c-.4.7-.5 1.5-.2 1.8.9.9 1.9-.4 1.4-1.8-.4-1.1-.6-1.1-1.2 0m-44.6 3.6c-.6.8-.9 1.9-.5 2.5s.2 1.7-.4 2.4c-.8 1-.7 1.7.4 2.6s2.1.9 4.5-.1c3.3-1.5 3.8-3.4 1.4-6.7-1.8-2.5-3.6-2.8-5.4-.7m-13.6.9c-.9 2.3 1.6 9.6 3.3 9.6.7 0 1.3-1.1 1.3-2.5 0-1.6.6-2.5 1.5-2.5.8 0 1.5.6 1.5 1.4 0 2.1 2.1 3.1 3 1.5 1.4-2.2-2-6.9-5-6.9-1.4 0-3.1-.5-3.8-1.2-.9-.9-1.3-.7-1.8.6m-7.3 4.7c-2.5 2.4-2.6 3.3-.5 5.3 1.7 1.8 6.4 2.2 6.4.6 0-.6-.9-1-2-1-2.4 0-2.7-2.8-.4-4.5 1.5-1 1.5-1.2.1-1.8-.8-.3-2.4.3-3.6 1.4m-20.7 1.9c-1.2.4-2.3 1.4-2.6 2.2-.6 1.5 1.8 7.8 3 7.8s3.4-5.4 2.2-5.8c-1.6-.6-1.2-3.2.5-3.2.8 0 1.5-.5 1.5-1 0-1.2-1.7-1.2-4.6 0m10.9-.2c-.6.4-1.4 1.8-1.8 3.2-.7 2.9 2.4 5.5 5.5 4.5 1.6-.5 3.8-6 2.8-7-.9-.9-5.4-1.4-6.5-.7m-326.6 270.9c-1 .9-.9 2.3.1 2.3.5 0 .9-.7.9-1.5 0-1.7-.1-1.8-1-.8m-28.2 8.3c.3.5 1.2 1 1.8 1 .7 0 3.4 1.2 6.1 2.6 2.6 1.4 5 2.3 5.2 2.1.5-.5-11.3-6.7-12.7-6.7-.6 0-.7.4-.4 1m38.1.7c-.6 1.4-.5 1.5.5.6.7-.7 1-1.5.7-1.8s-.9.2-1.2 1.2m-23.6 6.1c.1 1 17 9.2 17 8.2 0-.4-2.1-1.8-4.7-3.1-2.7-1.2-5-2.5-5.3-2.8-.8-1-7-3-7-2.3m52.9 3.9c-1.2 1.6-1.2 1.7.2.6.9-.7 2-.9 2.4-.5.5.4.5.1.1-.6-.9-1.6-1.1-1.5-2.7.5m-1.9 2.7c0 .2.7.7 1.6 1 .8.3 1.2.2.9-.4-.6-1-2.5-1.4-2.5-.6m-33 2.6c0 .5.5 1 1.1 1 .5 0 .7-.5.4-1-.3-.6-.8-1-1.1-1-.2 0-.4.4-.4 1m3 .9c0 .7 8.8 6 11.5 6.9 2.9 1.1 16 7.8 16.3 8.4.2.5 1 .8 1.7.8s4.4 1.6 8.2 3.7c9.6 5.1 22.2 11.3 22.9 11.2.4 0 1 .3 1.3.8.3.4 4.3 2.7 8.9 5 6.4 3.2 8.2 3.8 8.2 2.5 0-.8-.3-1.3-.6-.9-.3.3-3.1-1-6.2-2.9-3.2-1.9-6.5-3.4-7.4-3.4-1 0-1.8-.5-1.8-1 0-.6-.7-1-1.5-1s-3.6-1.3-6.2-2.9c-2.7-1.6-5.9-3.2-7.3-3.6s-2.7-1-3-1.4c-1-1.3-45-23-45-22.2m64 10.1c0 .5.5 1 1.1 1 .5 0 .7-.5.4-1-.3-.6-.8-1-1.1-1-.2 0-.4.4-.4 1m1.5 5c-.3.5-.2 1 .4 1 .5 0 1.3-.5 1.6-1 .3-.6.2-1-.4-1-.5 0-1.3.4-1.6 1m458.5 5.9c0 .5.7 1.1 1.5 1.5.8.3 1.5.1 1.5-.3 0-.5-.7-1.1-1.5-1.5-.8-.3-1.5-.1-1.5.3m-442.5 20.7c1.1.8 4.1 2.5 6.8 3.7 2.6 1.2 4.7 2.5 4.7 2.9 0 .5.6.8 1.4.8 1.4 0 22.1 10.2 24.3 12 .7.6 1.5 1 1.9 1s4.7 2.1 9.6 4.6c5 2.5 10.1 4.9 11.4 5.4 3.9 1.5 2.7-.3-1.4-2.2-2-.9-5.7-2.8-8.2-4.1s-11.7-6-20.5-10.3-19.1-9.6-22.9-11.7c-7-3.7-10.8-4.9-7.1-2.1m63.5 31.4c0 .8 5.2 4.1 7 4.5 1 .3 6.5 3 7 3.5.3.3 1.1.6 1.8.8.7.1 3 1.3 5.1 2.7 2.1 1.3 4.2 2.1 4.5 1.8.3-.4.6-.1.6.5 0 .7.6 1.2 1.3 1.2.6 0 4.1 1.6 7.7 3.5s12.6 6.4 20 10.1c7.4 3.6 14.1 7.1 14.8 7.7 1.7 1.3 5.5 2.1 4.8.9-.6-1-11.5-6.6-13.4-6.8-.7-.2-3-1.3-5-2.6-2.1-1.3-14-7.5-26.7-13.7-12.6-6.3-23.7-11.9-24.5-12.6-2.2-1.7-5-2.6-5-1.5m715.6 8.7c-.3.4-1.4.8-2.4.9-.9.2-6.4 1.4-12.2 2.8s-16.1 3.7-23 5.2c-6.9 1.4-13.4 3-14.5 3.4-1.1.5-3.6 1.2-5.5 1.5-1.9.4-9.8 2.2-17.5 4s-17.1 3.9-21 4.6c-6 1-13.5 3.4-13.5 4.2 0 .3 6.6 18.7 7.9 21.9.7 2 1.8 2.8 3.5 2.8 3.2 0 17.6-2.9 20.1-4 1.1-.5 5.4-1.6 9.5-2.5 4.1-.8 8.4-1.7 9.5-2 1.1-.2 8.1-1.8 15.5-3.5 7.4-1.6 14.4-3.2 15.5-3.4s5.8-1.3 10.5-2.4 13.4-3.2 19.3-4.5c6-1.4 11.2-2.8 11.5-3.2.6-.6-3.3-13-4.8-15-.4-.6-1-2.4-1.4-4-1.4-5.7-4.7-9-7-6.8m-30.1 17.1c1.5 1 3.7 9 3 10.3-.4.5-1.2.8-1.8.6-.7-.2-2.5.2-4 1s-5.5 1.5-8.8 1.6c-4.3.1-6.4.6-7.6 1.9-2.1 2.3-3.4 2.3-6.6-.2-1.8-1.5-2.4-2.6-1.9-4.2.7-2.9 2-3.8 5.5-3.8 2 0 3-.6 3.4-2 1-3.6 5.7-1.4 6.6 3 .4 2.4.4 2.4.6-.2.1-3.2 3.2-5.2 6.8-4.5 1.8.3 2.3.1 1.9-1-1-2.6.7-4.1 2.9-2.5m-31.7 9.4c-.1 1.8.2 4.5.6 6 .7 2.4.5 2.8-1.2 2.8-1.3 0-2.2-.9-2.7-2.8-.3-1.5-1.8-3.7-3.3-4.9l-2.7-2.2 2.5-1c1.4-.5 3.5-1 4.7-1 2-.1 2.3.4 2.1 3.1m-906.8-.7c1.2 1.4 5 2.7 5 1.6 0-.4-1.4-1.2-3.1-1.8-2.5-1-2.9-.9-1.9.2m6 3c0 .7 8.4 4.9 9.3 4.7.4-.1.7.2.7.8 0 .5.9 1 1.9 1 1.1 0 2.7.7 3.5 1.6.9.8 1.6 1.2 1.6.8 0-.3.6-.2 1.3.4 1.4 1.2 39 20.2 39.9 20.2.4 0 4 2 8.2 4.5 4.2 2.4 7.6 4.3 7.6 4 0-.2 3.3 1.3 7.3 3.4 4.1 2.1 8.2 4.3 9.3 4.9 9.5 5 16.7 8.2 17.2 7.8.8-.8 1.9-.2-20.8-11.5-11.3-5.7-20.9-10.7-21.4-11.2-.6-.5-1.6-.9-2.3-.9-.6 0-5-2.2-9.7-4.9s-8.7-4.7-8.9-4.5c-.2.3-3.1-1-6.3-2.9-7-3.9-36.9-18.7-37.8-18.7-.3 0-.6.2-.6.5m323 1.4c0 .8 2.4 2.3 4.1 2.5 1.3.2 8.5 4.2 9.1 5.1.4.5.8.6.8.1s.7-.3 1.5.4c1 .8 1.5.9 1.5.1 0-.6-2.7-2.5-6.1-4.1-7.9-4-10.9-5.2-10.9-4.1m42 2.1c-.9 1.6-.8 1.8.5 1.4.8-.4 1.5-1.2 1.5-2 0-2-.7-1.7-2 .6m442-1.6c0 .2 1.9 1.6 4.1 3.1 2.9 1.9 4.4 2.4 5.2 1.6.7-.7.5-1.2-.9-1.6-1-.4-3.1-1.3-4.6-2.1-2.6-1.4-3.8-1.7-3.8-1m-430.2 2.6c2.4 1 2.6 3.5.4 3.5-.7 0-1.2.3-1.2.7v1.8c0 .5 1 0 2.2-1.2 2.4-2.4 1.5-5.1-1.8-5.5-1.4-.2-1.3 0 .4.7m-3.8 3.2c-1.2 2.2-1.2 2.2.6.6 1-1 1.5-2 1.2-2.4-.4-.3-1.2.5-1.8 1.8m227.4 4.5c-1.6 2.6-2.9 5-2.9 5.3-.1.3-.8 1.9-1.7 3.6-1 1.8-1.3 3.6-.8 4.4.4.7.6 1.9.3 2.7-.3.9.3 1.3 2.1 1.3 1.4 0 2.6-.5 2.6-1.1s1.1-2.5 2.5-4.3 2.5-3.8 2.5-4.4c0-.7.4-1.2.8-1.2s.9-1.7 1-3.8c.2-2.7-.3-4.3-1.6-5.6-1.9-1.6-2.1-1.5-4.8 3.1m-217.1-2.2c-.3.9-.3 1.8-.1 2.1.3.3.8-.4 1.1-1.6.6-2.3-.1-2.7-1-.5m-42.3.5c0 .6.6 1 1.4 1s1.6.3 1.8.7c.3.8 9.8 5.6 21.6 10.9 3.4 1.5 6.2 3.2 6.2 3.6s.7.8 1.5.8c.9 0 3.2 1.1 5.3 2.4 2 1.2 4.8 2.6 6.2 3.1 1.4.4 4.6 2 7.2 3.6 4.7 2.8 11.2 5.9 12.5 5.8.3-.1.9.3 1.2.8.7 1 15.8 8.5 16.7 8.3.4-.1 1 .2 1.3.7.3.4 5.6 3.3 11.6 6.3 6.1 3 11.2 5.8 11.3 6.2.2.5.9.8 1.6.8 1.2 0 30.3 14.5 32.2 16.1.7.5 1.6.9 2 .7.5-.1 1.9.3 3.2 1 1.2.7 2.2.9 2.2.3 0-.5-8-4.8-17.7-9.5-9.8-4.8-19.1-9.4-20.8-10.2-1.6-.9-6.1-3.2-10-5.1-3.8-1.9-8.6-4.3-10.5-5.4s-13.2-6.8-25-12.6c-11.8-5.9-23.5-11.9-26-13.3-2.5-1.5-4.9-2.8-5.5-2.9-3-.9-5.9-2.3-9.7-4.7-2.4-1.5-4.5-2.7-4.8-2.7s-3.2-1.3-6.5-2.9c-8.6-4.2-10.5-4.9-10.5-3.8m50.2 3.2c-.7.7-1.2 1.9-1.1 2.7 0 1.4.1 1.4.6.1.4-.8 1.3-2 2.2-2.7s1.1-1.3.6-1.3c-.6 0-1.6.5-2.3 1.2m219.3 1c-.4 1.3-1.7 3.3-2.9 4.6-1.1 1.3-2 2.6-1.8 2.8.1.2-.4 1.7-1.2 3.2-1.2 2.4-1.2 3.2 0 6.2 1.3 3.1 1.6 3.2 3.1 1.8 1-1.1 1.3-2.3.8-3.5-1.9-4.1-1.4-6.3 1.5-7.8 1.7-.9 3.3-1.5 3.7-1.4 1.8.2 2.7-3 1.5-5.5-1.4-3.2-3.8-3.4-4.7-.4m8.5 4c-.8 1.3-1.5 4-1.5 6.2-.1 3.6-1.7 5.8-4.8 6.9-1.1.3-.3 4.3 1.3 6.7.9 1.3 1.3 1.1 3-1 1-1.4 3.3-5.3 5.1-8.7 2.8-5.6 3-6.3 1.8-8.9-1.8-3.6-3.1-3.9-4.9-1.2m-211 1.5c.8.3 1.9 1.1 2.3 1.7.6.7.7.6.4-.4-.2-.8-1.2-1.6-2.3-1.7-1.3-.2-1.5-.1-.4.4m1.4 5.5-1.9 2.3 2.3-1.9c2.1-1.8 2.7-2.6 1.9-2.6-.2 0-1.2 1-2.3 2.2m11.6 4.3c-1.1 2-1.1 2.8-.1 3.8 1 .9 1.1.8.5-.6-.3-.9-.1-2.4.6-3.2.7-.9 1.1-1.8.8-2-.3-.3-1.1.6-1.8 2m5.2 1.5c-1.8 2.9-1.5 3.8.4 1.2.9-1.3 1.4-2.5 1.2-2.7s-.9.5-1.6 1.5"/><path d="M2466 1240c0 .6 2.1 2 4.8 3.3 2.6 1.2 4.9 2.5 5.2 2.8.3.4 1.6 1 2.9 1.4 1.4.4 4.6 2.1 7.2 3.6 2.5 1.6 6.2 3.4 8 4.1 1.9.6 3.6 1.4 3.9 1.7.8.9 25.9 13.2 26.6 13.1.4-.1 1 .2 1.3.7s3.3 2.2 6.6 3.8c3.3 1.7 6.3 3.4 6.6 3.8.3.5.9.8 1.3.8.7-.2 49.9 24.1 50.6 24.9.3.3 2.1 1.2 4 2s3.7 1.6 4 1.9c.9 1.1 57.6 29.1 58.8 29.1.7 0 1.2.4 1.2 1 0 .5.7 1 1.5 1s1.5.4 1.5.8c0 .5.6.9 1.3.9.6 0 3 1.1 5.2 2.5s4.3 2.6 4.7 2.7c1.2.3 9.9 4.5 13.8 6.6 1.9 1.1 3.7 2 4 2 1.4.4 19 9.2 22.3 11.2 2.1 1.3 4.2 2.1 4.7 1.8.4-.3 1-.1 1.2.4.3 1.1 45.9 24.1 47.5 24.1.6 0 1.3.3 1.5.7.2.5 1.9 1.6 3.8 2.5s5.5 2.8 8 4.1 7.7 3.9 11.5 5.8c3.9 1.9 7.2 3.7 7.3 4.1.2.5.9.8 1.6.8.6 0 4.7 1.8 9.1 4.1s11 5.6 14.6 7.5c3.7 1.9 7.1 3.4 7.8 3.4.6 0 1.1.5 1.1 1.2 0 .6.3.9.6.5.3-.3 2.3.4 4.3 1.7 3.6 2.2 26.6 13.6 27.5 13.6.2 0 3 1.5 6.3 3.3 3.2 1.8 7.4 3.9 9.3 4.7s3.7 1.7 4 2 13.1 6.9 28.5 14.5c15.4 7.7 28.2 14.3 28.5 14.6s1.5.9 2.8 1.3c1.2.4 2.2 1.2 2.2 1.7 0 .6.4.8.9.4.6-.3 2.5.4 4.3 1.5 3.7 2.2 4.8 2.5 4.8 1.1 0-.6-2.6-2.3-5.7-3.8-4.9-2.4-10.9-5.4-27.3-13.7-1.4-.6-4.7-2.4-7.5-3.8-2.7-1.3-8.1-4-12-5.9-3.8-1.9-7.1-3.7-7.3-4.2-.2-.4-1-.7-1.8-.7s-1.4-.5-1.4-1.2c0-.6-.3-.8-.7-.5-.3.4-1.2.2-2-.4-.7-.6-1.3-.8-1.3-.4s-.6.3-1.2-.3c-2.4-1.9-16.8-9.1-16.8-8.4 0 .4-.4.2-.8-.3-.4-.6-5.6-3.5-11.7-6.4-6-3-11.2-5.7-11.5-6s-1.2-.7-2-.9-4-1.8-7-3.5-5.7-3.2-6-3.3c-2.6-.6-7-2.8-7-3.5 0-.5-.3-.8-.7-.7-.5.1-2.8-.9-5.3-2.2s-4.7-2.4-5-2.5c-.3 0-10.3-4.9-22.2-10.8-12-6-22-10.7-22.4-10.7-.4.1-1-.3-1.3-.8-.6-.9-12.8-7.4-13.3-7-.2.1-2.1-1-4.3-2.3-2.2-1.4-6-3.4-8.5-4.4-2.5-1.1-7-3.3-10-5s-7.1-3.7-9-4.5-3.7-1.6-4-1.9c-.9-1.1-13.8-7.4-14.6-7.2-.4.2-1-.1-1.3-.6-.8-1.1-15.4-8.3-16.8-8.3-.6 0-1.3-.3-1.5-.8-.4-.9-16-8.7-17-8.4-.3.1-1.2-.5-1.8-1.3-.7-.8-1.9-1.5-2.6-1.5-.8 0-1.4-.5-1.4-1.2 0-.6-.3-.9-.6-.5-.3.3-3.1-.8-6.3-2.5-9.8-5.3-12.3-6.5-28-14.3-8.5-4.2-16.1-8-16.7-8.6-.7-.6-1.7-.8-2.3-.5-.5.3-1.1.3-1.3-.1-.1-.5-3-2.2-6.3-3.8-3.3-1.7-6.2-3.2-6.5-3.5-.6-.7-35.7-18-36.4-18-.3 0-2.8-1.4-5.4-3-2.7-1.7-5.7-3-6.6-3-1 0-1.4-.5-1-1.2q.75-1.05-.6-.3c-.7.4-1.5.3-1.9-.2-.3-.5-13.6-7.4-29.6-15.3-15.9-8-29.1-14.8-29.3-15.3-.2-.4-1.1-.7-1.9-.7-.9 0-4.7-1.8-8.5-4-7.7-4.4-7.8-4.4-7.8-3m367 1c0 .5.5 1 1 1 .6 0 1-.5 1-1 0-.6-.4-1-1-1-.5 0-1 .4-1 1m-3 2c-.8.5-1.1 1.2-.7 1.6s1.3.2 1.9-.4c1.5-1.5.7-2.4-1.2-1.2m3 1.5c-1 1.2-1 1.5.3 1.5.8 0 1.7-.7 2.1-1.5.3-.8.2-1.5-.3-1.5s-1.4.7-2.1 1.5m6.6 2.8-1.7 3.2 2-2.4 2.1-2.3v3c0 4 1.4 4.8 2.8 1.7.9-2 .9-2.3-.3-1.8q-1.5.45-1.5-1.5c0-3.4-1.5-3.3-3.4.1m11.6 3.4c-.2 2.2 0 2.4 1.3 1.3 1.8-1.5 1.9-2.6.2-3.3-.8-.3-1.4.4-1.5 2m6.1 4.5c-2 2.6-2.6 4.1-1.5 3.4 1.2-.7 3.6-4.6 2.9-4.6-.3 0-.9.6-1.4 1.2m5.1 1c-.4.7-.3.8.4.4.6-.4 2.2-.2 3.4.4 2.2 1.1 2.2 1 .4-.4-2.4-1.9-3.2-2-4.2-.4m-1.7 3.3c-.4.8-.3 1.6.1 1.9s.9-.4.9-1.5c.2-2.3-.3-2.5-1-.4m5.9 1.2c-.6 1.4-.5 1.5.5.6.7-.7 1-1.5.7-1.8s-.9.2-1.2 1.2m5.9 2.3c-1.7 1.9-1.7 1.9.9.7 1.4-.7 2.6-1.5 2.6-2 0-1.3-1.7-.7-3.5 1.3m2.1 1.9c-.4.7-.5 1.5-.2 1.8.9.9 1.9-.4 1.4-1.8-.4-1.1-.6-1.1-1.2 0m7.4.1c0 .5.7 1 1.5 1 2.2 0 3 2.7 1.4 4.7-1 1.1-1 1.4-.2.9.7-.4 1.7-1.6 2.3-2.6.9-1.6.5-2.2-2-3.5-1.7-.9-3-1.1-3-.5m-2 3.1c0 .5.5.7 1 .4.6-.3 1-.8 1-1.1 0-.2-.4-.4-1-.4-.5 0-1 .5-1 1.1m-34 1.9c0 .6 1.7 1.8 3.8 2.8 2 .9 3.9 1.9 4.2 2.2.6.7 46.8 23.5 49.3 24.3 2.5.9 2.1-.6-.6-1.8-1.2-.6-4.9-2.5-8.2-4.2-3.3-1.6-8.9-4.5-12.5-6.2l-8-4c-.8-.4-4.6-2.3-8.5-4.2-3.8-1.9-9.6-4.9-12.8-6.6-6.6-3.7-6.7-3.7-6.7-2.3m33.1.3c.2.1 1.3.9 2.4 1.7 1.9 1.4 1.9 1.4.6-.3-.7-.9-1.8-1.7-2.4-1.7q-.9 0-.6.3m496.5 8.5c-.2.4.9.9 2.5 1 1.9.2 2.8-.2 2.4-.8-.7-1.2-4.2-1.3-4.9-.2m-15.6 2.6c0 .3.4 1.6 1 3 1.3 3.5 2.8 3.3 2.2-.4-.2-1.7-1-3-1.8-3s-1.4.2-1.4.4m16 .6c.8.5 2 1 2.5 1 .6 0 .3-.5-.5-1s-1.9-1-2.5-1c-.5 0-.3.5.5 1m-7.9 2.6c0 1.1.3 1.4.6.6.3-.7.2-1.6-.1-1.9-.3-.4-.6.2-.5 1.3m-11.5 1.9c-.3.8-.1 1.5.4 1.5.6 0 1-.7 1-1.5s-.2-1.5-.4-1.5-.6.7-1 1.5m-20.6 1.5c-1.2.8-1 1 .8 1 1.3 0 3.3.5 4.4 1.1 1.8 1 2 .9 1.5-.6-.4-.9-.7-1.9-.7-2.1 0-.8-4.5-.4-6 .6m12.3 1.7c.9.9 1.9 1.4 2.3 1.1 1-1-.6-2.8-2.4-2.8-1.5 0-1.5.1.1 1.7m-30.4 2.1c-1.2.6-1.4 1.4-.7 3.9.5 1.8 1.3 3.3 1.8 3.3 1.3 0 1.3-1.7 0-2.5-1.8-1.1-1.1-3.5 1.3-4.5 1.2-.5 1.5-.9.7-.9s-2.2.3-3.1.7m5.2 2.8c0 1.1.3 1.4.6.6.3-.7.2-1.6-.1-1.9-.3-.4-.6.2-.5 1.3m-380.8 1c0 .7.9 1.4 1.9 1.4s1.8-.2 1.8-.5c0-.2-.8-.9-1.8-1.4-1.4-.8-1.9-.6-1.9.5m366.7-.6c0 .5.5 1 1 1 .6 0 1-.5 1-1 0-.6-.4-1-1-1-.5 0-1 .4-1 1m-19.3.7c-2 .5-1.5 3.7.9 6.3 1.2 1.2 1.6 1.2 2.3.2.4-.7 1.5-1 2.3-.7 1.2.5 1.5 0 1.3-1.9-.5-4.5-1.8-5.2-6.8-3.9m4.1 2c-.4 2.2-2.2 2-2.6-.1-.2-1 .3-1.6 1.3-1.6s1.5.7 1.3 1.7m17.2.3c0 .5.5 1 1 1 .6 0 1-.5 1-1 0-.6-.4-1-1-1-.5 0-1 .4-1 1m-370.4 1.7c-.6 1.4-.5 1.5.5.6.7-.7 1-1.5.7-1.8s-.9.2-1.2 1.2m-34.4.5c.6 1.8 16.8 10.1 16.8 8.6 0-.7-3.4-2.9-7.5-4.8s-7.5-3.8-7.5-4.2c0-.5-.5-.8-1.1-.8s-.9.5-.7 1.2m42.4.4c-1.9 1.9-2 3.6-.4 5.2 1.8 1.8 4.6 1.4 5.8-.7 1.5-3 1.2-3.8-.6-1.3-1.8 2.6-3.9 2.9-4.8.6-1-2.5 1.3-4.6 4.3-3.9 2 .4 2.2.3 1.1-.5-2.1-1.4-3.6-1.2-5.4.6m11.9 3.5c.4.5 0 2.1-.9 3.4-2.5 3.7-1.9 4.4.9 1 2.9-3.6 3-4.1.9-4.9-.9-.3-1.2-.2-.9.5m-36.5 5.1c0 .7 7.1 4.8 15.8 9.1 8.6 4.3 18.2 9 21.2 10.6 3 1.5 7.1 3.5 9 4.4s6.3 3.2 9.8 5.1c3.4 1.9 6.2 3.3 6.2 3s1.5.3 3.3 1.4c6.3 3.9 16.7 9.1 16.7 8.4 0-.4.4-.2.8.3.6.9 4.4 2.9 6.4 3.4.4.1 3.9 2 7.9 4.2 3.9 2.2 7.6 3.8 8.2 3.6.7-.2-1.5-1.9-4.8-3.8-3.3-1.8-6.1-3.3-6.2-3.2-.2.2-10.5-5.1-17.1-8.7-.9-.5-6.9-3.4-13.2-6.5s-12.1-6.1-12.7-6.7c-.7-.6-1.3-.7-1.3-.2s-.4.4-.8-.1c-.8-1.1-20.5-11-21.1-10.6-.2.2-.7-.1-1-.6-.7-.9-17.2-9.3-18.4-9.3-.4 0-2.5-1.1-4.7-2.5-2.5-1.6-4-2.1-4-1.3m43.5 1.3c-1.6 1.3-2.6 2.4-2.2 2.5.5 0 1.6-.7 2.5-1.6 1.2-1.2 1.7-1.3 2-.4.3.7-.2 1.6-.9 2.1-1.1.7-1 .9.4.9 1.2 0 1.7-.8 1.7-3 0-1.7-.1-3-.2-3-.2 0-1.6 1.1-3.3 2.5m8.5 9.5c.8.5 2 1 2.5 1 .6 0 .3-.5-.5-1s-1.9-1-2.5-1c-.5 0-.3.5.5 1m-254.3 63.8c-1 1-1.4 2.2-1 2.5.3.4.1.7-.5.7s-1.4 1-1.7 2.1c-.4 1.2-2.2 4.7-4.1 7.8s-3.4 5.9-3.4 6.3 5.7 3.6 12.8 7.1c20.3 10.2 23.5 11.9 26.7 13.5 11.2 5.7 52.7 26.7 56 28.3 2.2 1 6.6 3.3 9.7 4.9l5.7 3 2-2.7c1.2-1.4 2.4-3.7 2.7-5 .4-1.2.9-2.3 1.3-2.3s1.2-1.2 1.8-2.8c.6-1.5 2.1-4.2 3.3-5.9l2.2-3.3-3.9-2.2c-2.1-1.3-4.1-2.2-4.5-2-.5.1-.8-.3-.8-.8 0-.6-.7-1-1.4-1-.8 0-4.2-1.6-7.6-3.6-3.3-1.9-7.5-4-9.3-4.6-1.7-.6-3.4-1.4-3.7-1.7-.7-.8-7.8-4.1-8.6-4-.4 0-1-.3-1.3-.8-.5-.7-15.4-8.4-17.1-8.8-2.6-.7-14-7-14-7.8 0-.6-.3-.7-.7-.4-.3.4-1.2.2-2-.4-.7-.6-1.3-.8-1.3-.5 0 .4-1.2-.1-2.7-1.2-2.8-1.9-31.4-16.2-32.4-16.2-.3 0-1.3.8-2.2 1.8m74.7 42.8c.9.4 2.1 1.5 2.7 2.6.9 1.8.8 1.9-1.1 1.3-1.7-.5-2.3-.1-3.3 2.4-1.2 3.2-2.1 3.8-3.2 2.2-.3-.5.2-1.7 1.2-2.6 1.3-1.4 1.4-2.1.5-3.6-.7-1-1.2-2.1-1.2-2.4 0-.7 2.5-.6 4.4.1m9.3 9.6c.2 3.6-1.9 5.2-5.4 4.1-2.2-.8-2.7-1.5-2.4-3.4.4-3 1.8-4 5.1-3.7 1.9.2 2.5.9 2.7 3m6 .5c0 1-.9 2.4-1.9 3.2-2.7 1.8-.8 3.7 2.1 2.1 1.2-.6 1.9-1.5 1.6-2.1-.8-1.1 1.5-1.2 3.4 0 1.6 1.1.6 6.7-1.4 7.5-.8.3-2.5-.4-3.8-1.5-1.4-1-2.9-1.9-3.4-1.9-2.3-.1-3.5-1.8-2.5-3.6.6-1.1 1.3-2.7 1.6-3.7.3-.9 1.4-1.7 2.4-1.7 1.1 0 1.9.7 1.9 1.7m12.1 4c-2.6 5.6-4.4 8.3-5.5 8.7-.7.3-1.3 0-1.3-.7 0-1.8 4.9-8.7 6.1-8.7.6 0 .9.3.7.7"/><path d="M2800.7 1435.7c-1.2 1.1-.8 2.3.8 2.3.8 0 1.5-.7 1.5-1.5 0-1.6-1.2-2-2.3-.8"/></svg>