<svg xmlns="http://www.w3.org/2000/svg" width="5333.333" height="2001.333" version="1.0" viewBox="0 0 4000 1501"><path d="M564.7.7 0 1v1500h1132c622.6 0 1132-.4 1132-.8 0-.5-1.8-5.3-4.1-10.8-6.2-15.2-17.3-48.9-22.8-69-21.6-79.1-31.2-164.9-29.8-263.9 1.2-79.9 9.2-156.1 24.3-232.5 36.8-185.9 126.2-333.4 245.9-406.1 15.2-9.2 44.4-23.4 60.5-29.4 23.3-8.6 47.3-14.8 73.3-18.7 19.7-3.1 76.6-3.3 98.2-.5 55.5 7.3 108.4 22.3 167.5 47.4 22.4 9.5 71.9 34.1 87.5 43.4 6.6 3.9 24.8 15.6 40.5 25.8 41.5 27.2 38.5 25.4 42.9 24.8 8.3-1.1 8.6-1.5 19.2-24.7 52.9-115.3 103.2-194 158.6-248.1 53.9-52.6 109.7-81.2 178.8-91.6 10-1.5 18.4-1.8 50.5-1.8 34.4 0 40.3.3 55.5 2.3 80.5 10.8 153.5 38.7 226.5 86.7 95.7 62.9 186.2 159.9 258.7 277.2l4.3 6.8V1h-593.8C3079.6 1 2433.7.8 1970.9.7 1508.1.5 875.4.5 564.7.7"/><path d="M3445.2 425.1c-21.4 1.8-45.7 8.2-65.6 17.1-65.9 29.6-103.1 76.3-146.4 183.8-3.9 9.6-10.7 26.9-15.2 38.5-4.5 11.5-11.3 28.6-15.2 37.8-6.3 15.1-6.9 17.3-6.4 21.2 1.1 7.3 4.5 12 17.6 24.2 6.9 6.4 40.9 38.5 75.5 71.3 178.9 169.3 252.5 235.3 344 308.4 81.1 64.9 110.8 84.4 147 96.4 52.4 17.5 97 9.1 131.6-24.8 20-19.7 31.2-41.9 37.1-73.9 2.9-15.6 3.1-56.9.5-76.1-8.8-63-32.8-136-76.1-231.3-32.8-72.3-81.2-150.9-131.1-213.2-84.4-105.2-171-166.2-252.5-177.9-14.1-2-32.3-2.6-44.8-1.5M2650.8 695c-13.1 1.4-27.9 4.6-40.9 9-30.6 10.1-53.3 27.1-73.9 55-56.7 77-92 179.7-103 299-4.5 49.3-4.3 112.5.5 163 7.8 81.5 25.7 157.4 51.4 217.2 6.7 15.7 19.7 41.1 27.1 53.1l6.1 9.7h237.7l5-7.8c18.4-29.1 34.4-64.6 61.5-137.2 41.8-111.8 76.3-222.7 131.1-421 9.6-34.9 18.9-67.3 20.7-72 3.5-9.7 3.6-15.8.1-20.7-1.1-1.6-7.1-6.5-13.4-10.8-6.2-4.3-25-17.8-41.8-29.9-52.8-38.1-75.1-52.9-102.5-68.2-32.9-18.3-69.8-31-106.5-36.4-15.6-2.4-46-3.3-59.2-2M3127 983.9c-2.2 3.2-4.2 11.1-26.1 105.6-39.2 168.9-56.7 237.9-80.5 318.7-7.4 25-20.5 65.3-26.4 81.2-2.2 6-4 11-4 11.2s227.3.4 505 .4h505v-87.9l-7.6 4.5c-11.7 6.9-31.6 16.7-44.4 21.7-57.4 22.7-126.6 27.3-197.5 13.2-91.6-18.2-185.7-70.4-292-161.9-36.5-31.5-66.7-59.9-127-119.6-89.3-88.4-101.1-99.8-165.5-159-26-23.9-34.3-31-36.1-31-.4 0-1.7 1.3-2.9 2.9"/></svg>