<svg id="Capa_1" data-name="Capa 1" xmlns="http://www.w3.org/2000/svg" xmlns:xlink="http://www.w3.org/1999/xlink" viewBox="0 0 6096.487 4186.818"><defs><mask id="mask" x="0" y="-3375" width="5536" height="3375" maskUnits="userSpaceOnUse"/><mask id="mask-2" x="-1" y="-3376" width="5538" height="3377" maskUnits="userSpaceOnUse"><rect x="-1" y="-1" width="5538" height="3377"/></mask><clipPath id="clip-path"><rect width="5536" height="3375" fill="none"/></clipPath><clipPath id="clip-path-2" transform="translate(2245.857 306.877)"><rect y="-7.92" width="1440" height="818.16" fill="none"/></clipPath><clipPath id="clip-path-3" transform="translate(2245.857 306.877)"><rect y="-7.92" width="1440" height="810" fill="none"/></clipPath><clipPath id="clip-path-4" transform="translate(2245.857 306.877)"><rect y="-7.92" width="1440" height="817.5" fill="none"/></clipPath><clipPath id="clip-path-5" transform="translate(2245.857 306.877)"><rect x="111.36" width="1328.64" height="810" fill="none"/></clipPath><clipPath id="clip-path-6" transform="translate(2245.857 306.877)"><rect x="111.535" y="-0.24" width="1328.705" height="810.48" fill="none"/></clipPath><pattern id="Unnamed_Pattern" data-name="Unnamed Pattern" width="5536" height="3375" patternTransform="translate(8035.937 6029.837) scale(0.24)" patternUnits="userSpaceOnUse" viewBox="0 0 5536 3375"><rect width="5536" height="3375" fill="none"/></pattern><filter id="luminosity-noclip" x="-2201" y="42" width="3563" height="3564" filterUnits="userSpaceOnUse" color-interpolation-filters="sRGB"><feFlood flood-color="#fff" result="bg"/><feBlend in="SourceGraphic" in2="bg"/></filter><mask id="mask-3" x="44.857" y="348.877" width="3563" height="3564" maskUnits="userSpaceOnUse"><g filter="url(#luminosity-noclip)"><g transform="translate(2245.857 306.877)"><image width="3563" height="3564" transform="translate(-2201 42)" xlink:href="Banner%2015.png"/></g></g></mask><mask id="mask-4" x="44.857" y="348.877" width="3563" height="3564" maskUnits="userSpaceOnUse"><g filter="url(#luminosity-noclip-2)"><g transform="translate(2245.857 306.877)"><image width="3563" height="3564" transform="translate(-2201 42)" xlink:href="Banner%2016.png"/></g></g></mask><mask id="mask-5" x="44.857" y="348.877" width="3563" height="3564" maskUnits="userSpaceOnUse"><g filter="url(#luminosity-noclip-3)"><g transform="translate(2245.857 306.877)"><image width="3563" height="3564" transform="translate(-2201 42)" xlink:href="Banner%2017.png"/></g></g></mask><filter id="luminosity-noclip-4" x="-2247.952" y="239.745" width="3563" height="3564" filterUnits="userSpaceOnUse" color-interpolation-filters="sRGB"><feFlood flood-color="#fff" result="bg"/><feBlend in="SourceGraphic" in2="bg"/></filter><mask id="mask-6" x="-2.095" y="546.621" width="3563" height="3564" maskUnits="userSpaceOnUse"><g filter="url(#luminosity-noclip-4)"><g transform="translate(2245.857 306.877)"><image width="3563" height="3564" transform="translate(-2247.952 239.745)" xlink:href="Banner%2018.png"/></g></g></mask><mask id="mask-7" x="-2.095" y="546.621" width="3563" height="3564" maskUnits="userSpaceOnUse"><g filter="url(#luminosity-noclip-5)"><g transform="translate(2245.857 306.877)"><image width="3563" height="3564" transform="translate(-2247.952 239.745)" xlink:href="Banner%2019.png"/></g></g></mask><mask id="mask-8" x="-2.095" y="546.621" width="3563" height="3564" maskUnits="userSpaceOnUse"><g filter="url(#luminosity-noclip-6)"><g transform="translate(2245.857 306.877)"><image width="3563" height="3564" transform="translate(-2247.952 239.745)" xlink:href="Banner%20110.png"/></g></g></mask><filter id="luminosity-noclip-7" x="289.907" y="120.633" width="3563" height="3564" filterUnits="userSpaceOnUse" color-interpolation-filters="sRGB"><feFlood flood-color="#fff" result="bg"/><feBlend in="SourceGraphic" in2="bg"/></filter><mask id="mask-9" x="2535.764" y="427.51" width="3563" height="3564" maskUnits="userSpaceOnUse"><g filter="url(#luminosity-noclip-7)"><g transform="translate(2245.857 306.877)"><image width="3563" height="3564" transform="translate(289.907 120.633)" xlink:href="Banner%20111.png"/></g></g></mask><mask id="mask-10" x="2535.764" y="427.51" width="3563" height="3564" maskUnits="userSpaceOnUse"><g filter="url(#luminosity-noclip-8)"><g transform="translate(2245.857 306.877)"><image width="3563" height="3564" transform="translate(289.907 120.633)" xlink:href="Banner%20112.png"/></g></g></mask><mask id="mask-11" x="2535.764" y="427.51" width="3563" height="3564" maskUnits="userSpaceOnUse"><g filter="url(#luminosity-noclip-9)"><g transform="translate(2245.857 306.877)"><image width="3563" height="3564" transform="translate(289.907 120.633)" xlink:href="Banner%20113.png"/></g></g></mask><filter id="luminosity-noclip-10" x="242.955" y="318.378" width="3563" height="3564" filterUnits="userSpaceOnUse" color-interpolation-filters="sRGB"><feFlood flood-color="#fff" result="bg"/><feBlend in="SourceGraphic" in2="bg"/></filter><mask id="mask-12" x="2488.812" y="625.254" width="3563" height="3564" maskUnits="userSpaceOnUse"><g filter="url(#luminosity-noclip-10)"><g transform="translate(2245.857 306.877)"><image width="3563" height="3564" transform="translate(242.955 318.378)" xlink:href="Banner%20114.png"/></g></g></mask><mask id="mask-13" x="2488.812" y="625.254" width="3563" height="3564" maskUnits="userSpaceOnUse"><g filter="url(#luminosity-noclip-11)"><g transform="translate(2245.857 306.877)"><image width="3563" height="3564" transform="translate(242.955 318.378)" xlink:href="Banner%20115.png"/></g></g></mask><mask id="mask-14" x="2488.812" y="625.254" width="3563" height="3564" maskUnits="userSpaceOnUse"><g filter="url(#luminosity-noclip-12)"><g transform="translate(2245.857 306.877)"><image width="3563" height="3564" transform="translate(242.955 318.378)" xlink:href="Banner%20116.png"/></g></g></mask><clipPath id="clip-path-7" transform="translate(2245.857 306.877)"><rect x="102.056" y="701.684" width="891.157" height="406.152" transform="translate(-500.662 764.875) rotate(-51.214)" fill="none"/></clipPath><clipPath id="clip-path-8" transform="translate(2245.857 306.877)"><rect x="96.89" y="701.391" width="901.959" height="406.152" transform="translate(-500.346 764.949) rotate(-51.214)" fill="none"/></clipPath><clipPath id="clip-path-9" transform="translate(2245.857 306.877)"><rect x="81.121" y="671.761" width="933.285" height="465.562" transform="translate(-500.445 764.894) rotate(-51.214)" fill="none"/></clipPath><clipPath id="clip-path-10" transform="translate(2245.857 306.877)"><rect x="81.121" y="671.762" width="933.285" height="465.562" transform="translate(-500.445 764.894) rotate(-51.214)" fill="none"/></clipPath><clipPath id="clip-path-11" transform="translate(2245.857 306.877)"><rect x="1171.352" y="117.274" width="376.742" height="826.332" transform="translate(-39.307 946.287) rotate(-37.865)" fill="none"/></clipPath><clipPath id="clip-path-12" transform="translate(2245.857 306.877)"><rect x="1171.4" y="111.898" width="376.742" height="837.204" transform="translate(-39.334 946.329) rotate(-37.865)" fill="none"/></clipPath><clipPath id="clip-path-13" transform="translate(2245.857 306.877)"><rect x="1143.833" y="97.57" width="431.65" height="866.017" transform="translate(-39.406 946.276) rotate(-37.865)" fill="none"/></clipPath><clipPath id="clip-path-15" transform="translate(2245.857 306.877)"><rect x="88.32" y="148.08" width="127.44" height="131.76" fill="none"/></clipPath><clipPath id="clip-path-16" transform="translate(2245.857 306.877)"><rect x="101.424" y="169.862" width="100.5" height="88.5" transform="translate(-109.735 236.789) rotate(-59.645)" fill="none"/></clipPath><clipPath id="clip-path-18" transform="translate(2245.857 306.877)"><rect x="1022.4" y="623.52" width="99.6" height="97.68" fill="none"/></clipPath><clipPath id="clip-path-19" transform="translate(2245.857 306.877)"><rect x="1039.074" y="635.242" width="66" height="74.25" transform="translate(-104.9 1137.29) rotate(-53.649)" fill="none"/></clipPath><clipPath id="clip-path-21" transform="translate(2245.857 306.877)"><rect x="569.28" y="92.88" width="83.52" height="83.28" fill="none"/></clipPath><clipPath id="clip-path-22" transform="translate(2245.857 306.877)"><rect x="581.521" y="105.094" width="58.5" height="58.5" transform="translate(102.456 498.632) rotate(-48.033)" fill="none"/></clipPath><clipPath id="clip-path-24" transform="translate(2245.857 306.877)"><rect x="178.8" y="710.88" width="64.08" height="64.08" fill="none"/></clipPath><clipPath id="clip-path-25" transform="translate(2245.857 306.877)"><rect x="187.545" y="719.679" width="46.5" height="46.5" transform="translate(-356.291 218.723) rotate(-31.41)" fill="none"/></clipPath><clipPath id="clip-path-27" transform="translate(2245.857 306.877)"><rect x="16.56" y="456.72" width="54.48" height="54.48" fill="none"/></clipPath><clipPath id="clip-path-28" transform="translate(2245.857 306.877)"><rect x="23.292" y="463.181" width="40.5" height="40.5" transform="translate(-417.557 331.81) rotate(-66.651)" fill="none"/></clipPath><clipPath id="clip-path-30" transform="translate(2245.857 306.877)"><rect x="959.76" y="148.08" width="62.16" height="61.92" fill="none"/></clipPath><clipPath id="clip-path-31" transform="translate(2245.857 306.877)"><rect x="967.975" y="156.129" width="45.75" height="45.75" transform="translate(369.28 971.138) rotate(-62.12)" fill="none"/></clipPath></defs><title>Banner 1</title><g clip-path="url(#clip-path-2)"><g clip-path="url(#clip-path-3)"><rect x="2245.857" y="298.957" width="1440" height="810" fill="#fff"/></g><g clip-path="url(#clip-path-4)"><rect x="2245.857" y="298.957" width="1440" height="817.5"/></g><g opacity="0.25" style="isolation:isolate"><g clip-path="url(#clip-path-5)"><g clip-path="url(#clip-path-6)"><circle cx="3922.349" cy="1564.957" r="1564.957" fill="url(#Unnamed_Pattern)"/></g></g></g><g mask="url(#mask-3)"><g mask="url(#mask-4)"><g mask="url(#mask-5)"><circle cx="1826.266" cy="2131.127" r="1779.302" fill="#f9d923" opacity="0.1"/></g></g></g><g mask="url(#mask-6)"><g mask="url(#mask-7)"><g mask="url(#mask-8)"><circle cx="1779.314" cy="2328.871" r="1779.302" fill="#f9d923" opacity="0.1"/></g></g></g><g mask="url(#mask-9)"><g mask="url(#mask-10)"><g mask="url(#mask-11)"><circle cx="4317.173" cy="2209.76" r="1779.302" fill="#f9d923" opacity="0.1"/></g></g></g><g mask="url(#mask-12)"><g mask="url(#mask-13)"><g mask="url(#mask-14)"><circle cx="4270.221" cy="2407.504" r="1779.302" fill="#f9d923" opacity="0.1"/></g></g></g><rect x="-2031.418" y="-217.655" width="3129.75" height="3129.75" transform="translate(444.552 1153.024) rotate(-88.525)" fill="none"/><rect x="-2031.418" y="-217.655" width="3129.75" height="3129.75" transform="translate(444.552 1153.024) rotate(-88.525)" fill="none"/><rect x="2262.417" y="320.664" width="1126.8" height="810" fill="none"/><g clip-path="url(#clip-path-7)"><g clip-path="url(#clip-path-8)"><image width="648" height="1440" transform="matrix(0.489, 0.393, -0.392, 0.488, 2917.934, 732.6)" xlink:href="Banner%20117.png"/></g></g><g clip-path="url(#clip-path-9)"><g clip-path="url(#clip-path-10)"><image width="870" height="1743" transform="matrix(0.417, 0.335, -0.335, 0.417, 2904.484, 701.859)" xlink:href="Banner%20118.png"/></g></g><g clip-path="url(#clip-path-11)"><g clip-path="url(#clip-path-12)"><image width="576" height="1280" transform="matrix(0.516, -0.401, 0.401, 0.516, 3199.976, 622.532)" xlink:href="Banner%20119.png"/></g></g><g clip-path="url(#clip-path-13)"><g clip-path="url(#clip-path-13)"><image width="870" height="1743" transform="matrix(0.392, -0.305, 0.305, 0.392, 3169.347, 628.088)" xlink:href="Banner%20120.png"/></g></g><g opacity="0.31" style="isolation:isolate"><g clip-path="url(#clip-path-15)"><g clip-path="url(#clip-path-16)"><g clip-path="url(#clip-path-16)"><path d="M148.815,199.893l1.975-3.372a30.334,30.334,0,0,0-46.3,36.533,30.331,30.331,0,0,1,44.324-33.16Z" transform="translate(2245.857 306.877)" fill="#7d6a13"/><path d="M127.092,238.4a13.872,13.872,0,0,0,18.685-4.521l33.429-57.027,10.419,6.1a23.045,23.045,0,0,1,1.78-3.81l-14.232-8.334-33.429,57.026a13.833,13.833,0,0,1-23.429-.1,13.838,13.838,0,0,0,6.777,10.667Z" transform="translate(2245.857 306.877)" fill="#7d6a13"/><path d="M197.753,213.716l1.857-3.171a22.791,22.791,0,0,1-8.905-9.523A22.966,22.966,0,0,0,197.753,213.716Z" transform="translate(2245.857 306.877)" fill="#7d6a13"/><path d="M190.707,201.024a22.835,22.835,0,0,1,2.734-15.836l-3.812-2.232A22.991,22.991,0,0,0,190.707,201.024Z" transform="translate(2245.857 306.877)" fill="#f9d923"/><path d="M139.073,208.432a13.857,13.857,0,0,0-18.758,19.3,13.82,13.82,0,0,1,24-10.642l8.51-14.531a30.229,30.229,0,0,0-3.381-2.323c-.208-.122-.418-.23-.627-.347l-6.535,11.159a13.691,13.691,0,0,0-3.206-2.62Z" transform="translate(2245.857 306.877)" fill="#f9d923"/><path d="M197.753,213.716l-6.478,11.061A39.226,39.226,0,0,1,175.2,206.814l-16.94,28.925a30.334,30.334,0,0,1-53.772-2.687,30.34,30.34,0,0,0,55.8,8.727l16.939-28.924a39.22,39.22,0,0,0,16.073,17.964l8.336-14.234A22.982,22.982,0,0,1,197.753,213.716Z" transform="translate(2245.857 306.877)" fill="#f9d923"/><path d="M158.263,235.739l16.94-28.925a39.226,39.226,0,0,0,16.072,17.963l6.478-11.061a22.948,22.948,0,0,1-7.048-12.694,22.979,22.979,0,0,1-1.078-18.067l-10.42-6.1-33.429,57.026a13.837,13.837,0,0,1-25.462-6.145,13.857,13.857,0,0,1,18.758-19.3,13.7,13.7,0,0,1,3.207,2.62l6.535-11.159a30.331,30.331,0,0,0-44.324,33.159,30.335,30.335,0,0,0,53.772,2.687Z" transform="translate(2245.857 306.877)"/></g></g></g></g><g opacity="0.31" style="isolation:isolate"><g clip-path="url(#clip-path-18)"><g clip-path="url(#clip-path-19)"><g clip-path="url(#clip-path-19)"><path d="M1061.474,673.594l-2.341-1.722a22.317,22.317,0,0,0-1.98,2.32,22.563,22.563,0,0,0,25.4,34.754,22.553,22.553,0,0,1-21.078-35.353Z" transform="translate(2245.857 306.877)" fill="#7d6a13"/><path d="M1088.263,692.649a10.313,10.313,0,0,0-1.892-14.168l-39.574-29.15,5.322-7.231a17.1,17.1,0,0,1-2.679-1.612l-7.269,9.877,39.574,29.15a10.287,10.287,0,0,1-1.9,17.318,10.29,10.29,0,0,0,8.414-4.184Z" transform="translate(2245.857 306.877)" fill="#7d6a13"/><path d="M1075.5,638.478l-2.2-1.619a16.949,16.949,0,0,1-7.734,5.846A17.073,17.073,0,0,0,1075.5,638.478Z" transform="translate(2245.857 306.877)" fill="#7d6a13"/><path d="M1065.563,642.7a16.982,16.982,0,0,1-11.5-3.251l-1.947,2.645A17.1,17.1,0,0,0,1065.563,642.7Z" transform="translate(2245.857 306.877)" fill="#f9d923"/><path d="M1067.031,681.462a10.3,10.3,0,0,0,12.818,15.371,10.276,10.276,0,0,1-6.006-18.575l-10.084-7.422a22.418,22.418,0,0,0-1.981,2.319c-.106.145-.2.292-.305.437l7.745,5.7a10.187,10.187,0,0,0-2.187,2.168Z" transform="translate(2245.857 306.877)" fill="#f9d923"/><path d="M1075.5,638.478l7.677,5.65a29.17,29.17,0,0,1-14.532,10.49l20.074,14.774a22.555,22.555,0,0,1-6.163,39.555,22.559,22.559,0,0,0,10.787-40.59l-20.073-14.772a29.165,29.165,0,0,0,14.533-10.491l-9.879-7.27A17.043,17.043,0,0,1,1075.5,638.478Z" transform="translate(2245.857 306.877)" fill="#f9d923"/><path d="M1088.715,669.392l-20.074-14.774a29.17,29.17,0,0,0,14.532-10.49l-7.677-5.65a27.345,27.345,0,0,1-23.379,3.621l-5.322,7.231,39.575,29.15a12.213,12.213,0,1,1-19.34,2.98,10.178,10.178,0,0,1,2.186-2.167l-7.744-5.7a21.067,21.067,0,1,0,27.242-4.2Z" transform="translate(2245.857 306.877)"/></g></g></g></g><g opacity="0.2" style="isolation:isolate"><g clip-path="url(#clip-path-21)"><g clip-path="url(#clip-path-22)"><g clip-path="url(#clip-path-22)"><image width="122" height="122" transform="translate(2854.439 399.913) rotate(41.967) scale(0.48)" xlink:href="Banner%20121.png"/></g></g></g></g><g opacity="0.3" style="isolation:isolate"><g clip-path="url(#clip-path-24)"><g clip-path="url(#clip-path-25)"><g clip-path="url(#clip-path-25)"><image width="122" height="122" transform="matrix(0.199, 0.325, -0.325, 0.199, 2464.378, 1017.846)" xlink:href="Banner%20122.png"/></g></g></g></g><g opacity="0.3" style="isolation:isolate"><g clip-path="url(#clip-path-27)"><g clip-path="url(#clip-path-28)"><g clip-path="url(#clip-path-28)"><image width="84" height="84" transform="matrix(0.443, 0.191, -0.191, 0.443, 2278.833, 763.69)" xlink:href="Banner%20123.png"/></g></g></g></g><g opacity="0.3" style="isolation:isolate"><g clip-path="url(#clip-path-30)"><g clip-path="url(#clip-path-31)"><g clip-path="url(#clip-path-31)"><image width="111" height="112" transform="matrix(0.193, -0.364, 0.361, 0.191, 3205.79, 495.404)" xlink:href="Banner%20124.png"/></g></g></g></g></g></svg>