<svg id="Capa_3" data-name="Capa 3" xmlns="http://www.w3.org/2000/svg" viewBox="0 0 1080 1080"><title>Icono Principal fondo oscuro</title><path d="M426.039,768.394h0A165.469,165.469,0,0,1,260.57,602.925V311.606h0A165.469,165.469,0,0,1,426.039,477.075Z" fill="#fff"/><path d="M653.961,311.606v150.7a103.545,103.545,0,0,1,7.326,189.382,165.525,165.525,0,0,0,158.143,116.7V477.075A165.469,165.469,0,0,0,653.961,311.606Z" fill="#fff"/><path d="M687.81,558.644a73.4,73.4,0,0,1-73.4,73.4c-40.537,0-86.295-72.313-86.295-72.313s45.758-74.485,86.295-74.485A73.4,73.4,0,0,1,687.81,558.644Z" fill="#f9d923"/><path d="M615.744,662.366c-55.654,0-110.828-84.652-116.934-94.3l-5.056-7.99,4.947-8.055c6.108-9.938,61.26-97.1,117.043-97.1,1.816,0,3.586.18,5.379.273-10.732-81.016-79.909-143.587-163.857-143.587V602.925A165.468,165.468,0,0,0,622.735,768.393V662.012C620.414,662.167,618.1,662.366,615.744,662.366Z" fill="#fff"/></svg>