<svg xmlns="http://www.w3.org/2000/svg" data-name="Capa 3" viewBox="0 0 1080 1080"><path fill="#f9d923" d="M260.57 311.606a165.47 165.47 0 0 1 165.469 165.469v291.319A165.47 165.47 0 0 1 260.57 602.925zm393.391 0v150.7a103.545 103.545 0 0 1 7.326 189.382 165.525 165.525 0 0 0 158.143 116.7V477.075a165.47 165.47 0 0 0-165.469-165.469"/><path fill="#f9d923" d="M687.81 558.644a73.4 73.4 0 0 1-73.4 73.4c-40.537 0-86.295-72.313-86.295-72.313s45.758-74.485 86.295-74.485a73.4 73.4 0 0 1 73.4 73.398"/><path fill="#f9d923" d="M615.744 662.366c-55.654 0-110.828-84.652-116.934-94.3l-5.056-7.99 4.947-8.055c6.108-9.938 61.26-97.1 117.043-97.1 1.816 0 3.586.18 5.379.273-10.732-81.016-79.909-143.587-163.857-143.587v291.318a165.47 165.47 0 0 0 165.469 165.468V662.012c-2.321.155-4.635.354-6.991.354"/></svg>