<svg id="LOGO_s" data-name="LOGO&apos;s" xmlns="http://www.w3.org/2000/svg" viewBox="0 0 1080 1080"><defs><style>.cls-1{fill:#f9d923;}</style></defs><title>IconDef</title><path class="cls-1" d="M75.489,160.329h0A275.067,275.067,0,0,1,350.557,435.4V919.671a0,0,0,0,1,0,0h0A275.067,275.067,0,0,1,75.489,644.6V160.329a0,0,0,0,1,0,0Z"/><path class="cls-1" d="M729.444,160.329V410.848c63.693,25.362,108.892,87.517,108.892,160.145,0,67.893-39.541,126.572-96.714,154.675,34.6,112.341,139.194,194,262.889,194V435.4C1004.511,283.481,881.359,160.329,729.444,160.329Z"/><path class="cls-1" d="M785.712,570.994A122.015,122.015,0,0,1,663.7,693.009c-67.387,0-143.452-120.211-143.452-120.211S596.31,448.978,663.7,448.978A122.015,122.015,0,0,1,785.712,570.994Z"/><path class="cls-1" d="M665.913,743.416c-92.516,0-184.234-140.722-194.386-156.768l-8.4-13.281,8.224-13.39c10.153-16.521,101.836-161.41,194.566-161.41,3.018,0,5.961.3,8.942.454-17.84-134.677-132.836-238.692-272.389-238.692V644.6c0,151.915,123.152,275.066,275.068,275.066V742.827C673.676,743.085,669.835,743.416,665.913,743.416Z"/></svg>